<svg xmlns="http://www.w3.org/2000/svg" xmlns:xlink="http://www.w3.org/1999/xlink" width="117.12" height="139.429" viewBox="0 0 117.12 139.429">
  <defs>
    <style>
      .cls-1 {
        fill: url(#linear-gradient);
      }

      .cls-2 {
        fill: url(#linear-gradient-2);
      }

      .cls-3 {
        fill: url(#linear-gradient-3);
      }
    </style>
    <linearGradient id="linear-gradient" x1="0.242" y1="0.051" x2="0.758" y2="0.949" gradientUnits="objectBoundingBox">
      <stop offset="0.386" stop-color="#ce000f"/>
      <stop offset="1" stop-color="#631011"/>
    </linearGradient>
    <linearGradient id="linear-gradient-2" x1="0.249" y1="0.063" x2="0.751" y2="0.937" xlink:href="#linear-gradient"/>
    <linearGradient id="linear-gradient-3" x1="0.247" y1="0.063" x2="0.753" y2="0.937" xlink:href="#linear-gradient"/>
  </defs>
  <g id="Group_364" data-name="Group 364" transform="translate(-261.44 -2220.226)">
    <path id="Path_1841" data-name="Path 1841" class="cls-1" d="M357.865,2272.705l10.846-.292-.5-18.579-10.328.278a33.552,33.552,0,0,0-2.941-7.135l8.072-8.517-13.489-12.785-7.706,8.132a33.806,33.806,0,0,0-7.209-2.994v-10.587H316.026v10.587a33.806,33.806,0,0,0-7.209,2.994l-7.707-8.132-13.488,12.785,8.072,8.517a33.2,33.2,0,0,0-2.921,7.062l-10.847.292.5,18.58,10.329-.279a33.437,33.437,0,0,0,2.941,7.136l-8.072,8.517,13.488,12.784,7.707-8.131a33.794,33.794,0,0,0,7.209,2.994v10.587h18.586v-10.587a33.794,33.794,0,0,0,7.209-2.994l7.706,8.131,13.489-12.784-8.072-8.517A33.2,33.2,0,0,0,357.865,2272.705Zm-32.546,8.59a17.922,17.922,0,1,1,17.922-17.923A17.925,17.925,0,0,1,325.319,2281.295Z"/>
    <path id="Path_1842" data-name="Path 1842" class="cls-2" d="M311.339,2335.146l6.928-.926-1.583-11.868-6.6.881a21.6,21.6,0,0,0-2.369-4.371l4.591-6.005-9.511-7.273-4.383,5.734a21.777,21.777,0,0,0-4.822-1.427l-.721-6.783-11.907,1.265.721,6.783a21.787,21.787,0,0,0-4.415,2.408l-5.49-4.685-7.771,9.108,5.75,4.907a21.413,21.413,0,0,0-1.39,4.723l-6.929.926,1.584,11.868,6.6-.881a21.543,21.543,0,0,0,2.369,4.371l-4.591,6.005,9.511,7.273,4.383-5.734a21.79,21.79,0,0,0,4.822,1.427l.721,6.783,11.907-1.265-.721-6.783a21.766,21.766,0,0,0,4.415-2.408l5.49,4.685,7.771-9.108-5.751-4.907A21.361,21.361,0,0,0,311.339,2335.146Zm-20.265,7.717a11.546,11.546,0,1,1,10.262-12.7A11.547,11.547,0,0,1,291.074,2342.863Z"/>
    <path id="Path_1843" data-name="Path 1843" class="cls-3" d="M377.15,2333.547l1.41-9.914-5.512-.782a18.022,18.022,0,0,0-.919-4.055l5.055-3.8-6.013-8.006-4.826,3.625a18.19,18.19,0,0,0-3.559-2.239l.953-5.624-9.872-1.674-.954,5.623a18.217,18.217,0,0,0-4.1.941l-3.361-5.013-8.316,5.575,3.52,5.251a17.948,17.948,0,0,0-2.188,3.488l-5.787-.821-1.409,9.913,5.511.782a18.02,18.02,0,0,0,.919,4.055l-5.055,3.8,6.013,8.006,4.826-3.625a18.178,18.178,0,0,0,3.559,2.239l-.953,5.624,9.872,1.674.954-5.623a18.164,18.164,0,0,0,4.1-.941l3.361,5.013,8.316-5.575-3.52-5.251a17.9,17.9,0,0,0,2.188-3.488Zm-12.714-7.1a9.655,9.655,0,1,1-7.9-11.134A9.655,9.655,0,0,1,364.436,2326.45Z"/>
  </g>
</svg>
