<?xml version="1.0" encoding="utf-8"?>
<!-- Generator: Adobe Illustrator 25.0.1, SVG Export Plug-In . SVG Version: 6.00 Build 0)  -->
<svg version="1.1" id="Layer_1" xmlns="http://www.w3.org/2000/svg" xmlns:xlink="http://www.w3.org/1999/xlink" x="0px" y="0px"
	 viewBox="0 0 153.6 48" style="enable-background:new 0 0 153.6 48;" xml:space="preserve">
<style type="text/css">
	.st0{fill:#1A1A1A;}
	.st1{fill:#CE000F;}
	.st2{enable-background:new    ;}
	.st3{fill:#FFFFFF;}
	.st4{fill:#333333;}
</style>
<g id="Group_379" transform="translate(-563.189 -3250.191)">
	<path id="Rectangle_362" class="st0" d="M566.3,3252.1h149.5c0.6,0,1,0.5,1,1v44c0,0.6-0.5,1-1,1H566.3c-0.6,0-1-0.5-1-1v-44
		C565.3,3252.6,565.8,3252.1,566.3,3252.1z"/>
	<path id="Rectangle_363" class="st1" d="M564.2,3250.2h149.5c0.6,0,1,0.5,1,1v44c0,0.6-0.5,1-1,1H564.2c-0.6,0-1-0.5-1-1v-44
		C563.2,3250.6,563.6,3250.2,564.2,3250.2z"/>
	<g class="st2">
		<path class="st3" d="M584.7,3275.8c0-0.4-0.1-0.7-0.4-0.9c-0.3-0.2-0.8-0.4-1.5-0.7c-0.7-0.2-1.3-0.5-1.7-0.7
			c-1.2-0.6-1.7-1.5-1.7-2.5c0-0.6,0.2-1,0.5-1.5c0.3-0.4,0.8-0.8,1.3-1s1.2-0.4,2-0.4c0.7,0,1.4,0.1,2,0.4c0.6,0.3,1,0.6,1.3,1.1
			c0.3,0.5,0.5,1,0.5,1.6h-2.1c0-0.5-0.1-0.8-0.4-1.1c-0.3-0.3-0.7-0.4-1.2-0.4c-0.5,0-0.9,0.1-1.2,0.3s-0.4,0.5-0.4,0.9
			c0,0.3,0.2,0.6,0.5,0.8s0.8,0.4,1.5,0.6c1.2,0.4,2.1,0.8,2.6,1.3c0.5,0.5,0.8,1.2,0.8,2c0,0.9-0.3,1.6-1,2.1
			c-0.7,0.5-1.6,0.8-2.7,0.8c-0.8,0-1.5-0.1-2.1-0.4c-0.6-0.3-1.1-0.7-1.5-1.2c-0.3-0.5-0.5-1.1-0.5-1.7h2.1c0,1.1,0.7,1.7,2,1.7
			c0.5,0,0.9-0.1,1.2-0.3C584.6,3276.5,584.7,3276.2,584.7,3275.8z"/>
		<path class="st3" d="M594,3276.4h-3.7l-0.7,2.1h-2.2l3.8-10.2h2l3.8,10.2h-2.2L594,3276.4z M590.9,3274.7h2.6l-1.3-3.8
			L590.9,3274.7z"/>
		<path class="st3" d="M597.9,3278.5v-10.2h3.6c1.2,0,2.2,0.2,2.8,0.7c0.6,0.5,1,1.2,1,2.1c0,0.5-0.1,0.9-0.4,1.3
			c-0.3,0.4-0.6,0.7-1.1,0.8c0.5,0.1,0.9,0.4,1.2,0.8c0.3,0.4,0.5,0.9,0.5,1.5c0,1-0.3,1.7-0.9,2.2c-0.6,0.5-1.5,0.8-2.7,0.8H597.9z
			 M600,3272.6h1.6c1.1,0,1.6-0.4,1.6-1.3c0-0.5-0.1-0.8-0.4-1c-0.3-0.2-0.7-0.3-1.3-0.3H600V3272.6z M600,3274v2.8h1.8
			c0.5,0,0.9-0.1,1.2-0.4c0.3-0.2,0.4-0.6,0.4-1c0-0.9-0.5-1.4-1.5-1.4H600z"/>
		<path class="st3" d="M613.2,3274.1h-4v2.7h4.7v1.7h-6.8v-10.2h6.8v1.7h-4.7v2.4h4V3274.1z"/>
		<path class="st3" d="M618.9,3274.8h-1.7v3.7h-2.1v-10.2h3.8c1.2,0,2.1,0.3,2.8,0.8c0.7,0.5,1,1.3,1,2.3c0,0.7-0.2,1.3-0.5,1.7
			s-0.8,0.8-1.4,1.1l2.2,4.2v0.1h-2.3L618.9,3274.8z M617.3,3273h1.7c0.5,0,0.9-0.1,1.2-0.4c0.3-0.3,0.4-0.6,0.4-1.1
			c0-0.5-0.1-0.9-0.4-1.1c-0.3-0.3-0.7-0.4-1.3-0.4h-1.7V3273z"/>
		<path class="st3" d="M630.7,3268.3l2.6,7.4l2.6-7.4h2.8v10.2h-2.1v-2.8l0.2-4.8l-2.8,7.6h-1.4l-2.8-7.6l0.2,4.8v2.8h-2.1v-10.2
			H630.7z"/>
		<path class="st3" d="M646.4,3276.4h-3.7l-0.7,2.1h-2.2l3.8-10.2h2l3.8,10.2h-2.2L646.4,3276.4z M643.3,3274.7h2.6l-1.3-3.8
			L643.3,3274.7z"/>
		<path class="st3" d="M652.5,3278.5h-2.1v-10.2h2.1V3278.5z"/>
		<path class="st3" d="M659.8,3275.8c0-0.4-0.1-0.7-0.4-0.9c-0.3-0.2-0.8-0.4-1.5-0.7c-0.7-0.2-1.3-0.5-1.7-0.7
			c-1.2-0.6-1.7-1.5-1.7-2.5c0-0.6,0.2-1,0.5-1.5c0.3-0.4,0.8-0.8,1.3-1c0.6-0.2,1.2-0.4,2-0.4c0.7,0,1.4,0.1,2,0.4
			c0.6,0.3,1,0.6,1.3,1.1c0.3,0.5,0.5,1,0.5,1.6h-2.1c0-0.5-0.1-0.8-0.4-1.1c-0.3-0.3-0.7-0.4-1.2-0.4c-0.5,0-0.9,0.1-1.2,0.3
			s-0.4,0.5-0.4,0.9c0,0.3,0.2,0.6,0.5,0.8c0.3,0.2,0.8,0.4,1.5,0.6c1.2,0.4,2.1,0.8,2.6,1.3c0.5,0.5,0.8,1.2,0.8,2
			c0,0.9-0.3,1.6-1,2.1c-0.7,0.5-1.6,0.8-2.7,0.8c-0.8,0-1.5-0.1-2.1-0.4c-0.6-0.3-1.1-0.7-1.5-1.2c-0.3-0.5-0.5-1.1-0.5-1.7h2.1
			c0,1.1,0.7,1.7,2,1.7c0.5,0,0.9-0.1,1.2-0.3C659.6,3276.5,659.8,3276.2,659.8,3275.8z"/>
	</g>
	<circle id="Ellipse_104" class="st3" cx="686.8" cy="3272.8" r="15.6"/>
	<path id="Path_1863" class="st4" d="M681.8,3279.2l6.1-6.1c0.2-0.2,0.2-0.4,0-0.6l-6.1-6.1c-0.4-0.4-0.4-1,0-1.3c0,0,0,0,0,0
		l0.8-0.8c0.4-0.4,1-0.4,1.3,0l7.9,7.9c0.3,0.3,0.3,0.9,0,1.3l-7.9,7.9c-0.4,0.4-1,0.4-1.3,0l-0.8-0.8
		C681.4,3280.2,681.4,3279.6,681.8,3279.2z"/>
</g>
</svg>
