<?xml version="1.0" encoding="utf-8"?>
<!-- Generator: Adobe Illustrator 25.0.1, SVG Export Plug-In . SVG Version: 6.00 Build 0)  -->
<svg version="1.1" id="Component_19_2" xmlns="http://www.w3.org/2000/svg" xmlns:xlink="http://www.w3.org/1999/xlink" x="0px"
	 y="0px" viewBox="0 0 111.5 38" style="enable-background:new 0 0 111.5 38;" xml:space="preserve">
<style type="text/css">
	.st0{fill:#1A1A1A;}
	.st1{fill:#CE000F;}
	.st2{enable-background:new    ;}
	.st3{fill:#FFFFFF;}
	.st4{fill:#333333;}
</style>
<path id="Rectangle_338" class="st0" d="M2.6,1.5h107.9c0.6,0,1,0.5,1,1V37c0,0.6-0.5,1-1,1H2.6c-0.6,0-1-0.5-1-1V2.6
	C1.5,2,2,1.5,2.6,1.5z"/>
<path id="Rectangle_339" class="st1" d="M1,0h107.9c0.6,0,1,0.5,1,1v34.4c0,0.6-0.5,1-1,1H1c-0.6,0-1-0.5-1-1V1C0,0.5,0.5,0,1,0z"/>
<g class="st2">
	<path class="st3" d="M16,20.4l1.8-6.1h1.9l-2.8,8.1h-1.7l-2.8-8.1h1.8L16,20.4z"/>
	<path class="st3" d="M25.3,18.9h-3.2v2.2h3.8v1.3h-5.4v-8.1h5.4v1.3h-3.7v1.9h3.2V18.9z"/>
	<path class="st3" d="M29.8,19.4h-1.3v3h-1.7v-8.1h3c1,0,1.7,0.2,2.2,0.6c0.5,0.4,0.8,1,0.8,1.8c0,0.6-0.1,1-0.4,1.4
		s-0.6,0.7-1.1,0.9l1.7,3.3v0.1h-1.8L29.8,19.4z M28.5,18.1h1.3c0.4,0,0.7-0.1,1-0.3c0.2-0.2,0.3-0.5,0.3-0.9c0-0.4-0.1-0.7-0.3-0.9
		c-0.2-0.2-0.5-0.3-1-0.3h-1.3V18.1z"/>
	<path class="st3" d="M39.1,14.3l2.1,5.9l2.1-5.9h2.2v8.1h-1.7v-2.2l0.2-3.8l-2.2,6h-1.1l-2.2-6l0.2,3.8v2.2h-1.7v-8.1H39.1z"/>
	<path class="st3" d="M51.6,20.7h-2.9l-0.6,1.7h-1.8l3-8.1h1.5l3,8.1h-1.8L51.6,20.7z M49.1,19.4h2l-1-3L49.1,19.4z"/>
	<path class="st3" d="M56.4,22.4h-1.7v-8.1h1.7V22.4z"/>
	<path class="st3" d="M62.2,20.3c0-0.3-0.1-0.6-0.3-0.7c-0.2-0.2-0.6-0.3-1.2-0.5c-0.6-0.2-1-0.4-1.4-0.6c-0.9-0.5-1.4-1.2-1.4-2
		c0-0.4,0.1-0.8,0.4-1.2s0.6-0.6,1.1-0.8s1-0.3,1.6-0.3c0.6,0,1.1,0.1,1.5,0.3c0.5,0.2,0.8,0.5,1.1,0.9c0.2,0.4,0.4,0.8,0.4,1.3
		h-1.7c0-0.4-0.1-0.7-0.3-0.9c-0.2-0.2-0.6-0.3-1-0.3c-0.4,0-0.7,0.1-0.9,0.3c-0.2,0.2-0.3,0.4-0.3,0.7c0,0.3,0.1,0.5,0.4,0.7
		c0.3,0.2,0.7,0.3,1.2,0.5c0.9,0.3,1.6,0.6,2.1,1.1c0.4,0.4,0.7,0.9,0.7,1.6c0,0.7-0.3,1.2-0.8,1.6c-0.5,0.4-1.2,0.6-2.1,0.6
		c-0.6,0-1.2-0.1-1.7-0.3s-0.9-0.5-1.2-0.9c-0.3-0.4-0.4-0.9-0.4-1.4h1.7c0,0.9,0.5,1.3,1.6,1.3c0.4,0,0.7-0.1,0.9-0.2
		C62.1,20.8,62.2,20.6,62.2,20.3z"/>
</g>
<circle id="Ellipse_101" class="st3" cx="87.7" cy="17.9" r="12.4"/>
<path id="Path_1840" class="st4" d="M83.7,23l4.8-4.8c0.1-0.1,0.1-0.3,0-0.4l-4.8-4.8c-0.3-0.3-0.3-0.8,0-1.1l0.6-0.6
	c0.3-0.3,0.8-0.3,1.1,0l6.3,6.3c0.3,0.3,0.3,0.7,0,1c0,0,0,0,0,0l-6.3,6.3c-0.3,0.3-0.8,0.3-1.1,0L83.7,24
	C83.5,23.7,83.5,23.3,83.7,23z"/>
</svg>
