<?xml version="1.0" encoding="utf-8"?>
<!-- Generator: Adobe Illustrator 25.0.1, SVG Export Plug-In . SVG Version: 6.00 Build 0)  -->
<svg version="1.1" id="Group_450" xmlns="http://www.w3.org/2000/svg" xmlns:xlink="http://www.w3.org/1999/xlink" x="0px" y="0px"
	 viewBox="0 0 132.8 48" style="enable-background:new 0 0 132.8 48;" xml:space="preserve">
<style type="text/css">
	.st0{fill:#1A1A1A;}
	.st1{fill:#333333;}
	.st2{enable-background:new    ;}
	.st3{fill:#FFFFFF;}
</style>
<path id="Rectangle_237" class="st0" d="M2.8,2h129c0.6,0,1,0.5,1,1v44c0,0.6-0.5,1-1,1H2.8c-0.6,0-1-0.5-1-1V3C1.8,2.4,2.3,2,2.8,2
	z"/>
<path id="Rectangle_238" class="st1" d="M1,0h129c0.6,0,1,0.5,1,1v44c0,0.6-0.5,1-1,1H1c-0.6,0-1-0.5-1-1V1C0,0.5,0.5,0,1,0z"/>
<g class="st2">
	<path class="st3" d="M27.6,23.9h-4v2.7h4.7v1.7h-6.8V18.1h6.8v1.7h-4.7v2.4h4V23.9z"/>
	<path class="st3" d="M37.8,28.3h-2.1l-4.1-6.7v6.7h-2.1V18.1h2.1l4.1,6.7v-6.7h2.1V28.3z"/>
	<path class="st3" d="M43.4,25.8l2.3-7.7h2.3l-3.6,10.2h-2.2l-3.5-10.2h2.3L43.4,25.8z"/>
	<path class="st3" d="M51.3,28.3h-2.1V18.1h2.1V28.3z"/>
	<path class="st3" d="M59.1,26.2h-3.7l-0.7,2.1h-2.2l3.8-10.2h2l3.8,10.2h-2.2L59.1,26.2z M56,24.5h2.6l-1.3-3.8L56,24.5z"/>
	<path class="st3" d="M66.8,24.6h-1.7v3.7H63V18.1h3.8c1.2,0,2.1,0.3,2.8,0.8c0.7,0.5,1,1.3,1,2.3c0,0.7-0.2,1.3-0.5,1.7
		s-0.8,0.8-1.4,1.1l2.2,4.2v0.1h-2.3L66.8,24.6z M65.1,22.9h1.7c0.5,0,0.9-0.1,1.2-0.4c0.3-0.3,0.4-0.6,0.4-1.1
		c0-0.5-0.1-0.9-0.4-1.1c-0.3-0.3-0.7-0.4-1.3-0.4h-1.7V22.9z"/>
</g>
<circle id="Ellipse_71" class="st3" cx="102.8" cy="22.6" r="15.6"/>
<path id="Path_1255" class="st1" d="M97.8,29l6.1-6.1c0.2-0.2,0.2-0.4,0-0.6l-6.1-6.1c-0.4-0.4-0.4-1,0-1.3c0,0,0,0,0,0l0.8-0.8
	c0.4-0.4,1-0.4,1.3,0l7.9,7.9c0.3,0.3,0.3,0.9,0,1.3l-7.9,7.9c-0.4,0.4-1,0.4-1.3,0l-0.8-0.8C97.4,30,97.4,29.4,97.8,29z"/>
</svg>
