<?xml version="1.0" encoding="utf-8"?>
<!-- Generator: Adobe Illustrator 25.0.1, SVG Export Plug-In . SVG Version: 6.00 Build 0)  -->
<svg version="1.1" id="Layer_1" xmlns="http://www.w3.org/2000/svg" xmlns:xlink="http://www.w3.org/1999/xlink" x="0px" y="0px"
	 viewBox="0 0 191.6 48" style="enable-background:new 0 0 191.6 48;" xml:space="preserve">
<style type="text/css">
	.st0{fill:#1A1A1A;}
	.st1{fill:#333333;}
	.st2{enable-background:new    ;}
	.st3{fill:#FFFFFF;}
</style>
<g id="Group_376" transform="translate(-907 -2657.191)">
	<path id="Rectangle_357" class="st0" d="M910.7,2659.1h187c0.6,0,1,0.5,1,1v44c0,0.6-0.5,1-1,1h-187c-0.6,0-1-0.5-1-1v-44
		C909.7,2659.6,910.1,2659.1,910.7,2659.1z"/>
	<path id="Rectangle_358" class="st1" d="M908,2657.2h187c0.6,0,1,0.5,1,1v44c0,0.6-0.5,1-1,1H908c-0.6,0-1-0.5-1-1v-44
		C907,2657.6,907.5,2657.2,908,2657.2z"/>
	<g class="st2">
		<path class="st3" d="M936.4,2681.3h-4v4.2h-2.1v-10.2h6.7v1.7h-4.5v2.6h4V2681.3z"/>
		<path class="st3" d="M942.5,2683.4h-3.7l-0.7,2.1h-2.2l3.8-10.2h2l3.8,10.2h-2.2L942.5,2683.4z M939.4,2681.7h2.6l-1.3-3.8
			L939.4,2681.7z"/>
		<path class="st3" d="M948.5,2683.8h4.5v1.7h-6.6v-10.2h2.1V2683.8z"/>
		<path class="st3" d="M960.3,2681.1h-4v2.7h4.7v1.7h-6.8v-10.2h6.8v1.7h-4.7v2.4h4V2681.1z"/>
		<path class="st3" d="M973.9,2682.1c-0.1,1.1-0.5,2-1.2,2.6c-0.7,0.6-1.7,0.9-2.9,0.9c-1.3,0-2.3-0.4-3.1-1.3
			c-0.8-0.9-1.1-2.1-1.1-3.6v-0.6c0-1,0.2-1.8,0.5-2.6c0.3-0.7,0.8-1.3,1.5-1.7c0.6-0.4,1.4-0.6,2.2-0.6c1.2,0,2.1,0.3,2.8,0.9
			c0.7,0.6,1.1,1.5,1.2,2.7h-2.1c-0.1-0.7-0.2-1.1-0.6-1.4c-0.3-0.3-0.8-0.4-1.4-0.4c-0.7,0-1.2,0.3-1.6,0.8
			c-0.3,0.5-0.5,1.3-0.5,2.3v0.8c0,1.1,0.2,1.9,0.5,2.4s0.9,0.8,1.6,0.8c0.6,0,1.1-0.1,1.5-0.4s0.5-0.8,0.6-1.4H973.9z"/>
		<path class="st3" d="M983.6,2680.6c0,1-0.2,1.9-0.5,2.6s-0.9,1.3-1.5,1.8c-0.7,0.4-1.4,0.6-2.3,0.6c-0.8,0-1.6-0.2-2.3-0.6
			c-0.7-0.4-1.2-1-1.5-1.7c-0.4-0.8-0.5-1.6-0.6-2.6v-0.5c0-1,0.2-1.9,0.5-2.7c0.4-0.8,0.9-1.4,1.5-1.8c0.7-0.4,1.4-0.6,2.3-0.6
			c0.9,0,1.6,0.2,2.3,0.6c0.7,0.4,1.2,1,1.5,1.8c0.4,0.8,0.5,1.6,0.5,2.6V2680.6z M981.5,2680.2c0-1.1-0.2-1.9-0.6-2.4
			c-0.4-0.6-0.9-0.8-1.6-0.8c-0.7,0-1.3,0.3-1.6,0.8c-0.4,0.5-0.6,1.4-0.6,2.4v0.5c0,1,0.2,1.9,0.6,2.4c0.4,0.6,0.9,0.9,1.7,0.9
			c0.7,0,1.2-0.3,1.6-0.8s0.6-1.4,0.6-2.4V2680.2z"/>
		<path class="st3" d="M993.5,2685.5h-2.1l-4.1-6.7v6.7h-2.1v-10.2h2.1l4.1,6.7v-6.7h2.1V2685.5z"/>
		<path class="st3" d="M1003.6,2685.5h-2.1l-4.1-6.7v6.7h-2.1v-10.2h2.1l4.1,6.7v-6.7h2.1V2685.5z"/>
		<path class="st3" d="M1013.9,2680.6c0,1-0.2,1.9-0.5,2.6s-0.9,1.3-1.5,1.8c-0.7,0.4-1.4,0.6-2.3,0.6c-0.8,0-1.6-0.2-2.3-0.6
			c-0.7-0.4-1.2-1-1.5-1.7c-0.4-0.8-0.5-1.6-0.6-2.6v-0.5c0-1,0.2-1.9,0.5-2.7c0.4-0.8,0.9-1.4,1.5-1.8s1.4-0.6,2.3-0.6
			s1.6,0.2,2.3,0.6s1.2,1,1.5,1.8c0.4,0.8,0.5,1.6,0.5,2.6V2680.6z M1011.7,2680.2c0-1.1-0.2-1.9-0.6-2.4s-0.9-0.8-1.6-0.8
			c-0.7,0-1.3,0.3-1.6,0.8c-0.4,0.5-0.6,1.4-0.6,2.4v0.5c0,1,0.2,1.9,0.6,2.4c0.4,0.6,0.9,0.9,1.7,0.9c0.7,0,1.2-0.3,1.6-0.8
			s0.6-1.4,0.6-2.4V2680.2z"/>
		<path class="st3" d="M1020.7,2682.8c0-0.4-0.1-0.7-0.4-0.9s-0.8-0.4-1.5-0.7s-1.3-0.5-1.7-0.7c-1.2-0.6-1.7-1.5-1.7-2.5
			c0-0.6,0.2-1,0.5-1.5c0.3-0.4,0.8-0.8,1.3-1c0.6-0.2,1.2-0.4,2-0.4c0.7,0,1.4,0.1,2,0.4c0.6,0.3,1,0.6,1.3,1.1
			c0.3,0.5,0.5,1,0.5,1.6h-2.1c0-0.5-0.1-0.8-0.4-1.1c-0.3-0.3-0.7-0.4-1.2-0.4c-0.5,0-0.9,0.1-1.2,0.3s-0.4,0.5-0.4,0.9
			c0,0.3,0.2,0.6,0.5,0.8c0.3,0.2,0.8,0.4,1.5,0.6c1.2,0.4,2.1,0.8,2.6,1.3s0.8,1.2,0.8,2c0,0.9-0.3,1.6-1,2.1
			c-0.7,0.5-1.6,0.8-2.7,0.8c-0.8,0-1.5-0.1-2.1-0.4c-0.6-0.3-1.1-0.7-1.5-1.2c-0.3-0.5-0.5-1.1-0.5-1.7h2.1c0,1.1,0.7,1.7,2,1.7
			c0.5,0,0.9-0.1,1.2-0.3C1020.5,2683.5,1020.7,2683.2,1020.7,2682.8z"/>
		<path class="st3" d="M1032.2,2682.1c-0.1,1.1-0.5,2-1.2,2.6c-0.7,0.6-1.7,0.9-2.9,0.9c-1.3,0-2.3-0.4-3.1-1.3
			c-0.8-0.9-1.1-2.1-1.1-3.6v-0.6c0-1,0.2-1.8,0.5-2.6c0.3-0.7,0.8-1.3,1.5-1.7c0.6-0.4,1.4-0.6,2.2-0.6c1.2,0,2.1,0.3,2.8,0.9
			c0.7,0.6,1.1,1.5,1.2,2.7h-2.1c-0.1-0.7-0.2-1.1-0.6-1.4s-0.8-0.4-1.4-0.4c-0.7,0-1.2,0.3-1.6,0.8c-0.3,0.5-0.5,1.3-0.5,2.3v0.8
			c0,1.1,0.2,1.9,0.5,2.4c0.3,0.5,0.9,0.8,1.6,0.8c0.7,0,1.1-0.1,1.5-0.4s0.5-0.8,0.6-1.4H1032.2z"/>
		<path class="st3" d="M1042,2680.6c0,1-0.2,1.9-0.5,2.6s-0.9,1.3-1.5,1.8c-0.7,0.4-1.4,0.6-2.3,0.6c-0.8,0-1.6-0.2-2.3-0.6
			c-0.7-0.4-1.2-1-1.5-1.7c-0.4-0.8-0.5-1.6-0.6-2.6v-0.5c0-1,0.2-1.9,0.5-2.7s0.9-1.4,1.5-1.8c0.7-0.4,1.4-0.6,2.3-0.6
			c0.9,0,1.6,0.2,2.3,0.6c0.7,0.4,1.2,1,1.5,1.8s0.5,1.6,0.5,2.6V2680.6z M1039.9,2680.2c0-1.1-0.2-1.9-0.6-2.4
			c-0.4-0.6-0.9-0.8-1.6-0.8c-0.7,0-1.3,0.3-1.6,0.8c-0.4,0.5-0.6,1.4-0.6,2.4v0.5c0,1,0.2,1.9,0.6,2.4c0.4,0.6,0.9,0.9,1.7,0.9
			c0.7,0,1.2-0.3,1.6-0.8s0.6-1.4,0.6-2.4V2680.2z"/>
	</g>
	<circle id="Ellipse_103" class="st3" cx="1068.6" cy="2679.8" r="15.6"/>
	<path id="Path_1862" class="st1" d="M1063.6,2686.2l6.1-6.1c0.2-0.2,0.2-0.4,0-0.6l-6.1-6.1c-0.4-0.4-0.4-1,0-1.3l0.8-0.8
		c0.4-0.4,1-0.4,1.3,0l7.9,7.9c0.3,0.3,0.3,0.9,0,1.3l-7.9,7.9c-0.4,0.4-1,0.4-1.3,0l-0.8-0.8
		C1063.2,2687.2,1063.2,2686.6,1063.6,2686.2z"/>
</g>
</svg>
