<svg xmlns="http://www.w3.org/2000/svg" width="50" height="50" viewBox="0 0 50 50">
  <path id="Exclusion_2" data-name="Exclusion 2" d="M25,50A25.007,25.007,0,0,1,15.269,1.965,25.007,25.007,0,0,1,34.731,48.036,24.843,24.843,0,0,1,25,50Zm-.14-39.5c-2.558,0-4.828.039-5.924.1a8.484,8.484,0,0,0-6.018,2.313A8.483,8.483,0,0,0,10.6,18.93c-.136,2.381-.136,9.468,0,11.849A8.444,8.444,0,0,0,12.918,36.8a8.52,8.52,0,0,0,6.018,2.319c1.1.062,3.367.1,5.924.1s4.828-.039,5.925-.1A8.444,8.444,0,0,0,36.8,36.8a8.5,8.5,0,0,0,2.319-6.017c.135-2.38.135-9.464,0-11.843A8.438,8.438,0,0,0,36.8,12.919a8.5,8.5,0,0,0-6.017-2.32C29.688,10.536,27.418,10.5,24.86,10.5Zm2.54,26.15c-.538,0-1.057-.005-1.514-.01-.373,0-.725-.007-1.022-.007s-.636,0-1,.007c-.447,0-.953.009-1.479.009a20.607,20.607,0,0,1-5.985-.593,4.851,4.851,0,0,1-2.73-2.731c-.644-1.621-.608-5.123-.584-7.44,0-.374.007-.727.007-1.025s0-.636-.007-1c-.022-2.327-.056-5.844.584-7.464a4.846,4.846,0,0,1,2.73-2.73,20.18,20.18,0,0,1,5.921-.594c.54,0,1.061.005,1.52.01.374,0,.727.007,1.025.007s.636,0,1-.007c.449,0,.955-.009,1.479-.009a20.607,20.607,0,0,1,5.985.593,4.851,4.851,0,0,1,2.731,2.73c.643,1.621.608,5.125.584,7.443,0,.373-.007.725-.007,1.022s0,.649.007,1.022c.023,2.321.059,5.827-.584,7.443a4.855,4.855,0,0,1-2.731,2.731A20.237,20.237,0,0,1,27.4,36.647ZM24.863,17.494a7.351,7.351,0,1,0,5.21,2.153A7.317,7.317,0,0,0,24.863,17.494Zm7.664-2.019a1.717,1.717,0,1,0,1.718,1.717A1.719,1.719,0,0,0,32.528,15.476ZM24.863,29.644a4.787,4.787,0,1,1,4.787-4.787A4.793,4.793,0,0,1,24.863,29.644Z" fill="#ce000f"/>
</svg>
