<svg xmlns="http://www.w3.org/2000/svg" width="49.562" height="49.562" viewBox="0 0 49.562 49.562">
  <path id="Path_1966" data-name="Path 1966" d="M524.741,3573.039a24.781,24.781,0,1,0,24.781,24.781A24.781,24.781,0,0,0,524.741,3573.039Zm-7.871,40.411h-6.481v-20.871h6.481Zm-3.244-23.719a3.771,3.771,0,1,1,3.754-3.789A3.785,3.785,0,0,1,513.626,3589.731Zm27.509,23.719h-6.474v-10.16c0-2.421-.049-5.527-3.37-5.527-3.37,0-3.886,2.631-3.886,5.353v10.334H520.93v-20.871h6.216v2.847h.091a6.81,6.81,0,0,1,6.133-3.371c6.559,0,7.765,4.32,7.765,9.93Z" transform="translate(-499.96 -3573.039)" fill="#ce000f"/>
</svg>
