<svg xmlns="http://www.w3.org/2000/svg" width="108" height="43.331" viewBox="0 0 108 43.331">
  <defs>
    <style>
      .cls-1 {
        fill: #fff;
      }

      .cls-2 {
        fill: #444;
      }

      .cls-3 {
        isolation: isolate;
      }
    </style>
  </defs>
  <g id="Group_390" data-name="Group 390" transform="translate(-875.25 -3577.155)">
    <g id="Group_386" data-name="Group 386">
      <circle id="Ellipse_105" data-name="Ellipse 105" class="cls-1" cx="21.665" cy="21.665" r="21.665" transform="translate(875.25 3577.155)"/>
    </g>
    <g id="Group_387" data-name="Group 387">
      <path id="Path_1889" data-name="Path 1889" class="cls-2" d="M879.138,3602.187v-6.111h1.182v5.073h2.939v1.038Z"/>
      <path id="Path_1890" data-name="Path 1890" class="cls-2" d="M884.065,3602.187v-6.161h1.182v6.161Z"/>
      <path id="Path_1891" data-name="Path 1891" class="cls-2" d="M887.866,3602.187l-2.092-6.161h1.282l1.481,4.56,1.434-4.56h1.253l-2.1,6.161Z"/>
      <path id="Path_1892" data-name="Path 1892" class="cls-2" d="M891.831,3602.187v-6.161h2.487a4.057,4.057,0,0,1,1.364.166,1.373,1.373,0,0,1,.681.59,1.851,1.851,0,0,1,.255.971,1.693,1.693,0,0,1-.388,1.145,1.82,1.82,0,0,1-1.157.57,2.8,2.8,0,0,1,.632.517,7.015,7.015,0,0,1,.673,1l.715,1.2H895.68l-.855-1.341a8.884,8.884,0,0,0-.623-.906.9.9,0,0,0-.355-.255,1.829,1.829,0,0,0-.595-.07h-.24v2.572Zm1.181-3.555h.875a4.288,4.288,0,0,0,1.061-.076.65.65,0,0,0,.333-.261.838.838,0,0,0,.119-.462.769.769,0,0,0-.157-.5.72.72,0,0,0-.446-.242c-.1-.014-.383-.021-.863-.021h-.922Z"/>
      <path id="Path_1893" data-name="Path 1893" class="cls-2" d="M897.492,3599.145a4.11,4.11,0,0,1,.268-1.581,2.91,2.91,0,0,1,.545-.845,2.271,2.271,0,0,1,.756-.554,3.068,3.068,0,0,1,1.262-.244,2.681,2.681,0,0,1,2.07.844,3.933,3.933,0,0,1,.007,4.684,2.658,2.658,0,0,1-2.061.844,2.685,2.685,0,0,1-2.077-.84A3.283,3.283,0,0,1,897.492,3599.145Zm1.218-.043a2.386,2.386,0,0,0,.46,1.587,1.526,1.526,0,0,0,2.325,0,2.435,2.435,0,0,0,.453-1.607,2.409,2.409,0,0,0-.441-1.58,1.578,1.578,0,0,0-2.35.007A2.412,2.412,0,0,0,898.71,3599.1Z"/>
      <path id="Path_1894" data-name="Path 1894" class="cls-2" d="M906.36,3596.026h2.16a4.022,4.022,0,0,1,1.113.117,1.946,1.946,0,0,1,.883.568,2.719,2.719,0,0,1,.559,1,4.762,4.762,0,0,1,.192,1.456,4.268,4.268,0,0,1-.18,1.311,2.739,2.739,0,0,1-.627,1.089,2.05,2.05,0,0,1-.83.491,3.4,3.4,0,0,1-1.047.131H906.36Zm1.182,1.042v4.081h.882a3.093,3.093,0,0,0,.715-.059,1.073,1.073,0,0,0,.477-.256,1.326,1.326,0,0,0,.309-.595,4.211,4.211,0,0,0,.12-1.128,3.861,3.861,0,0,0-.12-1.1,1.438,1.438,0,0,0-.335-.6,1.1,1.1,0,0,0-.548-.29,5.085,5.085,0,0,0-.969-.059Z"/>
      <path id="Path_1895" data-name="Path 1895" class="cls-2" d="M912.269,3602.187v-6.161h4.339v1.042h-3.157v1.366h2.938v1.038h-2.938v1.677h3.27v1.038Z"/>
    </g>
    <g id="Group_388" data-name="Group 388" class="cls-3">
      <path id="Path_1896" data-name="Path 1896" class="cls-1" d="M920.018,3602.187v-6.161h2.487a4.061,4.061,0,0,1,1.364.166,1.367,1.367,0,0,1,.68.59,1.843,1.843,0,0,1,.256.971,1.693,1.693,0,0,1-.388,1.145,1.825,1.825,0,0,1-1.158.57,2.809,2.809,0,0,1,.633.517,7.035,7.035,0,0,1,.672,1l.716,1.2h-1.414l-.854-1.341a9.23,9.23,0,0,0-.623-.906.9.9,0,0,0-.356-.255,1.822,1.822,0,0,0-.594-.07h-.24v2.572Zm1.181-3.555h.875a4.288,4.288,0,0,0,1.061-.076.648.648,0,0,0,.332-.261.83.83,0,0,0,.12-.462.764.764,0,0,0-.158-.5.718.718,0,0,0-.446-.242c-.095-.014-.383-.021-.862-.021H921.2Z"/>
      <path id="Path_1897" data-name="Path 1897" class="cls-1" d="M925.919,3602.187v-6.161h4.339v1.042H927.1v1.366h2.939v1.038H927.1v1.677h3.27v1.038Z"/>
      <path id="Path_1898" data-name="Path 1898" class="cls-1" d="M935.118,3599.922l1.145.382a2.735,2.735,0,0,1-.876,1.5,2.41,2.41,0,0,1-1.555.49,2.461,2.461,0,0,1-1.917-.84,3.309,3.309,0,0,1-.75-2.292,3.481,3.481,0,0,1,.754-2.389,2.524,2.524,0,0,1,1.985-.851,2.359,2.359,0,0,1,1.744.668,2.456,2.456,0,0,1,.6,1.135l-1.169.294a1.314,1.314,0,0,0-.434-.756,1.2,1.2,0,0,0-.8-.278,1.3,1.3,0,0,0-1.056.492,2.5,2.5,0,0,0-.406,1.593,2.7,2.7,0,0,0,.4,1.665,1.273,1.273,0,0,0,1.039.494,1.142,1.142,0,0,0,.81-.315A1.855,1.855,0,0,0,935.118,3599.922Z"/>
      <path id="Path_1899" data-name="Path 1899" class="cls-1" d="M937.309,3602.187v-6.111h1.182v5.073h2.938v1.038Z"/>
      <path id="Path_1900" data-name="Path 1900" class="cls-1" d="M947.55,3602.187h-1.285l-.511-1.4h-2.34l-.483,1.4h-1.253l2.279-6.161h1.25Zm-2.175-2.438-.806-2.286-.792,2.286Z"/>
      <path id="Path_1901" data-name="Path 1901" class="cls-1" d="M948.161,3602.187v-6.161h1.768l1.063,4.2,1.05-4.2h1.773v6.161h-1.1v-4.85l-1.161,4.85h-1.138l-1.158-4.85v4.85Z"/>
      <path id="Path_1902" data-name="Path 1902" class="cls-1" d="M960.266,3602.187h-1.285l-.511-1.4h-2.34l-.483,1.4h-1.253l2.279-6.161h1.25Zm-2.175-2.438-.806-2.286-.791,2.286Z"/>
      <path id="Path_1903" data-name="Path 1903" class="cls-1" d="M964.639,3599.922l1.146.382a2.729,2.729,0,0,1-.877,1.5,2.407,2.407,0,0,1-1.554.49,2.46,2.46,0,0,1-1.917-.84,3.31,3.31,0,0,1-.751-2.292,3.481,3.481,0,0,1,.755-2.389,2.522,2.522,0,0,1,1.984-.851,2.361,2.361,0,0,1,1.745.668,2.474,2.474,0,0,1,.6,1.135l-1.17.294a1.318,1.318,0,0,0-.433-.756,1.2,1.2,0,0,0-.8-.278,1.3,1.3,0,0,0-1.055.492,2.5,2.5,0,0,0-.406,1.593,2.692,2.692,0,0,0,.4,1.665,1.273,1.273,0,0,0,1.038.494,1.144,1.144,0,0,0,.811-.315A1.854,1.854,0,0,0,964.639,3599.922Zm-2.483,3.959v-.5a6.958,6.958,0,0,0,.754.046.854.854,0,0,0,.527-.134.315.315,0,0,0,.132-.261.32.32,0,0,0-.124-.249.59.59,0,0,0-.383-.1,1.734,1.734,0,0,0-.523.083l.1-.417a1.981,1.981,0,0,1,.672-.112,1.111,1.111,0,0,1,.759.231.726.726,0,0,1,.258.562.737.737,0,0,1-.287.6,1.725,1.725,0,0,1-1.11.315A3.353,3.353,0,0,1,962.156,3603.881Z"/>
      <path id="Path_1904" data-name="Path 1904" class="cls-1" d="M966.56,3599.145a4.113,4.113,0,0,1,.266-1.581,2.934,2.934,0,0,1,.546-.845,2.281,2.281,0,0,1,.756-.554,3.066,3.066,0,0,1,1.263-.244,2.677,2.677,0,0,1,2.069.844,3.93,3.93,0,0,1,.006,4.684,2.656,2.656,0,0,1-2.06.844,2.683,2.683,0,0,1-2.076-.84A3.278,3.278,0,0,1,966.56,3599.145Zm1.217-.043a2.392,2.392,0,0,0,.459,1.587,1.463,1.463,0,0,0,1.166.539,1.445,1.445,0,0,0,1.16-.536,2.435,2.435,0,0,0,.453-1.607,2.4,2.4,0,0,0-.441-1.58,1.577,1.577,0,0,0-2.349.007A2.406,2.406,0,0,0,967.777,3599.1Zm.659-3.417h-.511c0-.064,0-.114,0-.151a1.01,1.01,0,0,1,.2-.678.655.655,0,0,1,.523-.238.973.973,0,0,1,.259.032,3.073,3.073,0,0,1,.438.18,1.269,1.269,0,0,0,.5.149.289.289,0,0,0,.214-.084.47.47,0,0,0,.11-.281h.519a1.314,1.314,0,0,1-.2.811.625.625,0,0,1-.508.244,1.2,1.2,0,0,1-.268-.03c-.061-.016-.214-.074-.459-.172a1.662,1.662,0,0,0-.536-.147.247.247,0,0,0-.2.082A.446.446,0,0,0,968.436,3595.685Z"/>
      <path id="Path_1905" data-name="Path 1905" class="cls-1" d="M973.159,3602.187v-6.161H977.5v1.042h-3.157v1.366h2.938v1.038h-2.938v1.677h3.27v1.038Z"/>
      <path id="Path_1906" data-name="Path 1906" class="cls-1" d="M978.314,3600.182l1.149-.118a1.5,1.5,0,0,0,.421.9,1.233,1.233,0,0,0,.857.288,1.266,1.266,0,0,0,.86-.256.77.77,0,0,0,.29-.594.574.574,0,0,0-.122-.372.952.952,0,0,0-.425-.266c-.138-.051-.455-.141-.947-.27a3.168,3.168,0,0,1-1.334-.609,1.683,1.683,0,0,1-.285-2.121,1.611,1.611,0,0,1,.731-.624,2.8,2.8,0,0,1,1.152-.214,2.394,2.394,0,0,1,1.659.508,1.836,1.836,0,0,1,.585,1.358l-1.182.054a1.077,1.077,0,0,0-.325-.682,1.15,1.15,0,0,0-.749-.208,1.3,1.3,0,0,0-.806.222.459.459,0,0,0-.189.382.485.485,0,0,0,.176.375,3.028,3.028,0,0,0,1.087.411,5.583,5.583,0,0,1,1.275.444,1.671,1.671,0,0,1,.646.626,2.024,2.024,0,0,1-.044,1.973,1.707,1.707,0,0,1-.792.688,3.163,3.163,0,0,1-1.274.224,2.456,2.456,0,0,1-1.7-.539A2.4,2.4,0,0,1,978.314,3600.182Z"/>
    </g>
    <g id="Group_389" data-name="Group 389">
      <path id="Path_1907" data-name="Path 1907" class="cls-1" d="M923.612,3609.765l.811.2a2.465,2.465,0,0,1-2.537,1.969,3.006,3.006,0,0,1-1.611-.387,2.449,2.449,0,0,1-.945-1.124,3.87,3.87,0,0,1-.324-1.58,3.35,3.35,0,0,1,.367-1.6,2.442,2.442,0,0,1,1.04-1.039,3.116,3.116,0,0,1,1.486-.357,2.575,2.575,0,0,1,1.546.451,2.329,2.329,0,0,1,.873,1.265l-.8.181a1.809,1.809,0,0,0-.618-.936,1.7,1.7,0,0,0-1.02-.294,2.038,2.038,0,0,0-1.181.325,1.734,1.734,0,0,0-.666.875,3.378,3.378,0,0,0-.193,1.131,3.446,3.446,0,0,0,.229,1.312,1.636,1.636,0,0,0,.708.838,2.043,2.043,0,0,0,1.041.277,1.792,1.792,0,0,0,1.153-.377A1.916,1.916,0,0,0,923.612,3609.765Z"/>
      <path id="Path_1908" data-name="Path 1908" class="cls-1" d="M925.046,3609.7a2.157,2.157,0,0,1,.685-1.756,2.12,2.12,0,0,1,1.4-.474,2.028,2.028,0,0,1,1.5.576,2.146,2.146,0,0,1,.582,1.593,2.738,2.738,0,0,1-.257,1.3,1.792,1.792,0,0,1-.749.734,2.256,2.256,0,0,1-1.072.261,2.037,2.037,0,0,1-1.506-.575A2.238,2.238,0,0,1,925.046,3609.7Zm.773,0a1.774,1.774,0,0,0,.372,1.228,1.272,1.272,0,0,0,1.869,0,1.817,1.817,0,0,0,.371-1.25,1.723,1.723,0,0,0-.373-1.2,1.274,1.274,0,0,0-1.867,0A1.763,1.763,0,0,0,925.819,3609.7Z"/>
      <path id="Path_1909" data-name="Path 1909" class="cls-1" d="M930.086,3611.831v-4.267h.674v.6a1.549,1.549,0,0,1,.555-.5,1.615,1.615,0,0,1,.79-.191,1.5,1.5,0,0,1,.808.2,1.056,1.056,0,0,1,.445.552,1.61,1.61,0,0,1,1.372-.748,1.388,1.388,0,0,1,1.016.351,1.471,1.471,0,0,1,.355,1.083v2.93h-.749v-2.688a1.934,1.934,0,0,0-.072-.625.615.615,0,0,0-.266-.308.851.851,0,0,0-.452-.117,1.078,1.078,0,0,0-.777.3,1.285,1.285,0,0,0-.309.958v2.48h-.752v-2.772a1.186,1.186,0,0,0-.184-.725.709.709,0,0,0-.6-.241,1.134,1.134,0,0,0-.587.161.918.918,0,0,0-.391.471,2.549,2.549,0,0,0-.121.893v2.213Z"/>
      <path id="Path_1910" data-name="Path 1910" class="cls-1" d="M937.216,3613.467v-5.9h.687v.554a1.684,1.684,0,0,1,.547-.489,1.55,1.55,0,0,1,.739-.162,1.8,1.8,0,0,1,1,.281,1.74,1.74,0,0,1,.657.793,2.823,2.823,0,0,1,.222,1.124,2.753,2.753,0,0,1-.245,1.179,1.8,1.8,0,0,1-.711.8,1.877,1.877,0,0,1-.98.28,1.473,1.473,0,0,1-.675-.153,1.519,1.519,0,0,1-.491-.387v2.079Zm.682-3.746a1.8,1.8,0,0,0,.347,1.218,1.08,1.08,0,0,0,.84.394,1.1,1.1,0,0,0,.859-.408,1.885,1.885,0,0,0,.357-1.264,1.83,1.83,0,0,0-.349-1.222,1.067,1.067,0,0,0-.834-.406,1.1,1.1,0,0,0-.85.432A1.877,1.877,0,0,0,937.9,3609.721Z"/>
      <path id="Path_1911" data-name="Path 1911" class="cls-1" d="M941.961,3611.831v-5.891h.752v5.891Z"/>
      <path id="Path_1912" data-name="Path 1912" class="cls-1" d="M946.775,3611.3a2.78,2.78,0,0,1-.805.482,2.4,2.4,0,0,1-.829.142,1.652,1.652,0,0,1-1.124-.344,1.113,1.113,0,0,1-.394-.879,1.127,1.127,0,0,1,.149-.572,1.213,1.213,0,0,1,.388-.417,1.934,1.934,0,0,1,.542-.236,5.658,5.658,0,0,1,.669-.109,7.113,7.113,0,0,0,1.341-.248c0-.1,0-.163,0-.19a.782.782,0,0,0-.212-.622,1.3,1.3,0,0,0-.858-.246,1.363,1.363,0,0,0-.783.18,1.082,1.082,0,0,0-.374.632l-.736-.1a1.724,1.724,0,0,1,.33-.733,1.456,1.456,0,0,1,.665-.43,3.088,3.088,0,0,1,1.007-.15,2.74,2.74,0,0,1,.924.129,1.235,1.235,0,0,1,.523.322,1.132,1.132,0,0,1,.233.493,3.914,3.914,0,0,1,.038.667v.965a9.894,9.894,0,0,0,.048,1.276,1.615,1.615,0,0,0,.19.512h-.785A1.485,1.485,0,0,1,946.775,3611.3Zm-.063-1.615a5.635,5.635,0,0,1-1.228.273,2.928,2.928,0,0,0-.657.145.645.645,0,0,0-.3.235.592.592,0,0,0-.1.344.607.607,0,0,0,.228.482,1.009,1.009,0,0,0,.667.193,1.6,1.6,0,0,0,.772-.183,1.146,1.146,0,0,0,.5-.5,1.69,1.69,0,0,0,.121-.724Z"/>
      <path id="Path_1913" data-name="Path 1913" class="cls-1" d="M948.644,3606.772v-.832h.752v.832Zm0,5.059v-4.267h.752v4.267Z"/>
      <path id="Path_1914" data-name="Path 1914" class="cls-1" d="M950.541,3611.831v-4.267h.677v.606a1.616,1.616,0,0,1,1.412-.7,1.923,1.923,0,0,1,.738.138,1.15,1.15,0,0,1,.5.364,1.352,1.352,0,0,1,.234.534,3.99,3.99,0,0,1,.042.7v2.624H953.4v-2.6a1.9,1.9,0,0,0-.088-.662.713.713,0,0,0-.312-.349,1,1,0,0,0-.524-.131,1.253,1.253,0,0,0-.83.294,1.41,1.41,0,0,0-.349,1.113v2.331Z"/>
      <path id="Path_1915" data-name="Path 1915" class="cls-1" d="M956.943,3611.184l.11.639a2.822,2.822,0,0,1-.568.064,1.331,1.331,0,0,1-.636-.124.7.7,0,0,1-.318-.329,2.487,2.487,0,0,1-.092-.853v-2.456h-.552v-.561h.552v-1.058l.749-.435v1.493h.755v.561h-.755v2.5a1.235,1.235,0,0,0,.039.4.312.312,0,0,0,.13.142.523.523,0,0,0,.256.051A2.678,2.678,0,0,0,956.943,3611.184Z"/>
      <path id="Path_1916" data-name="Path 1916" class="cls-1" d="M957.379,3610.557l.744-.113a.986.986,0,0,0,.349.659,1.245,1.245,0,0,0,.8.23,1.21,1.21,0,0,0,.769-.2.6.6,0,0,0,.251-.476.435.435,0,0,0-.221-.386,3.361,3.361,0,0,0-.769-.246,7.131,7.131,0,0,1-1.148-.347,1.1,1.1,0,0,1-.485-.406,1.089,1.089,0,0,1-.029-1.1,1.187,1.187,0,0,1,.37-.405,1.584,1.584,0,0,1,.479-.212,2.378,2.378,0,0,1,.649-.085,2.7,2.7,0,0,1,.918.144,1.249,1.249,0,0,1,.583.392,1.5,1.5,0,0,1,.259.661l-.735.1a.765.765,0,0,0-.291-.514,1.086,1.086,0,0,0-.679-.186,1.267,1.267,0,0,0-.74.165.477.477,0,0,0-.222.387.394.394,0,0,0,.092.253.67.67,0,0,0,.289.193q.113.039.664.184a9.479,9.479,0,0,1,1.115.335,1.126,1.126,0,0,1,.494.38,1.031,1.031,0,0,1,.181.619,1.182,1.182,0,0,1-.22.681,1.406,1.406,0,0,1-.634.495,2.392,2.392,0,0,1-.936.175,2.146,2.146,0,0,1-1.318-.347A1.581,1.581,0,0,1,957.379,3610.557Z"/>
      <path id="Path_1917" data-name="Path 1917" class="cls-1" d="M964.4,3611.831v-5.891h2.3a2.959,2.959,0,0,1,1.127.178,1.434,1.434,0,0,1,.664.551,1.41,1.41,0,0,1,.241.778,1.3,1.3,0,0,1-.214.71,1.5,1.5,0,0,1-.644.539,1.608,1.608,0,0,1,.855.535,1.4,1.4,0,0,1,.3.892,1.686,1.686,0,0,1-.181.77,1.517,1.517,0,0,1-.45.548,1.9,1.9,0,0,1-.671.292,4.254,4.254,0,0,1-.988.1Zm.811-3.416h1.325a3.091,3.091,0,0,0,.773-.068.873.873,0,0,0,.466-.293.819.819,0,0,0,.156-.515.918.918,0,0,0-.146-.517.735.735,0,0,0-.417-.3,3.579,3.579,0,0,0-.932-.083h-1.225Zm0,2.72h1.526a3.8,3.8,0,0,0,.552-.027,1.343,1.343,0,0,0,.468-.161.88.88,0,0,0,.309-.327,1,1,0,0,0,.121-.5.948.948,0,0,0-.176-.572.926.926,0,0,0-.487-.343,3.2,3.2,0,0,0-.9-.1h-1.417Z"/>
      <path id="Path_1918" data-name="Path 1918" class="cls-1" d="M969.767,3609.7a2.156,2.156,0,0,1,.685-1.756,2.118,2.118,0,0,1,1.4-.474,2.03,2.03,0,0,1,1.5.576,2.15,2.15,0,0,1,.582,1.593,2.725,2.725,0,0,1-.258,1.3,1.79,1.79,0,0,1-.748.734,2.259,2.259,0,0,1-1.072.261,2.037,2.037,0,0,1-1.506-.575A2.238,2.238,0,0,1,969.767,3609.7Zm.772,0a1.774,1.774,0,0,0,.373,1.228,1.271,1.271,0,0,0,1.868,0,1.812,1.812,0,0,0,.372-1.25,1.718,1.718,0,0,0-.374-1.2,1.273,1.273,0,0,0-1.866,0A1.763,1.763,0,0,0,970.539,3609.7Z"/>
      <path id="Path_1919" data-name="Path 1919" class="cls-1" d="M974.527,3609.7a2.157,2.157,0,0,1,.685-1.756,2.12,2.12,0,0,1,1.4-.474,2.028,2.028,0,0,1,1.5.576,2.146,2.146,0,0,1,.582,1.593,2.739,2.739,0,0,1-.257,1.3,1.792,1.792,0,0,1-.749.734,2.256,2.256,0,0,1-1.072.261,2.037,2.037,0,0,1-1.506-.575A2.238,2.238,0,0,1,974.527,3609.7Zm.773,0a1.774,1.774,0,0,0,.372,1.228,1.272,1.272,0,0,0,1.869,0,1.817,1.817,0,0,0,.371-1.25,1.723,1.723,0,0,0-.373-1.2,1.274,1.274,0,0,0-1.867,0A1.763,1.763,0,0,0,975.3,3609.7Z"/>
      <path id="Path_1920" data-name="Path 1920" class="cls-1" d="M979.572,3611.831v-5.891h.752v3.359l1.781-1.735h.974l-1.7,1.582,1.869,2.685h-.928l-1.467-2.182-.531.491v1.691Z"/>
    </g>
  </g>
</svg>
