<?xml version="1.0" encoding="UTF-8"?>
<svg id="Camada_1" data-name="Camada 1" xmlns="http://www.w3.org/2000/svg" xmlns:xlink="http://www.w3.org/1999/xlink" viewBox="0 0 500 435.85">
  <defs>
    <style>
      .cls-1 {
        fill: url(#Gradiente_sem_nome_10);
      }

      .cls-1, .cls-2 {
        stroke-width: 0px;
      }

      .cls-2 {
        fill: #fff;
      }
    </style>
    <linearGradient id="Gradiente_sem_nome_10" data-name="Gradiente sem nome 10" x1="1058.3" y1="-17.79" x2="1529.74" y2="453.64" gradientTransform="translate(-1044.02 435.85) scale(1 -1)" gradientUnits="userSpaceOnUse">
      <stop offset="0" stop-color="#dd1f31"/>
      <stop offset=".49" stop-color="#c22228"/>
      <stop offset="1" stop-color="#701213"/>
    </linearGradient>
  </defs>
  <rect class="cls-1" x="-1.58" y="-1.93" width="503.16" height="439.72" transform="translate(500 435.85) rotate(-180)"/>
  <rect class="cls-2" x="396.12" y="215.22" width="70.6" height="16.74"/>
  <g>
    <path class="cls-2" d="m116.25,281.22h23.88v27.63c0,20.52-11.84,38.87-39.27,38.87s-39.66-18.15-39.66-39.07v-86.82h25.26v26.24h53.67v18.15h-53.67v39.86c0,12.23,4.34,19.34,14.8,19.34s15-6.91,15-18.94v-25.26Z"/>
    <path class="cls-2" d="m230.7,345.15l-15.39-56.44-15.39,56.44h-26.24l-27.63-97.08h27.03l15.79,62.36,13.42-62.36h26.05l15.19,62.36,14.8-62.36h26.44l-27.82,97.08h-26.24Z"/>
    <path class="cls-2" d="m352.06,345.15l-.2-11.84c-6.12,9.87-15.19,14.41-27.03,14.41-24.47,0-42.03-19.34-42.03-52.09,0-29.4,14.8-50.12,39.86-50.12,12.04,0,21.51,4.93,28.81,15.19v-48.15h25.26v132.6h-24.67Zm.39-46.17c0-21.11-7.3-31.57-21.51-31.57-15,0-22.1,10.06-22.1,29.99,0,17.36,9.08,29.4,21.9,29.4s21.71-11.44,21.71-27.82Z"/>
    <path class="cls-2" d="m411.45,303.32c.79,14.6,9.08,24.07,21.71,24.07,8.29,0,15.59-4.14,17.36-10.85h26.44c-5.92,19.93-21.9,31.18-42.62,31.18-32.36,0-48.54-17.76-48.54-52.88,0-29.99,17.17-49.33,46.96-49.33s45.58,19.34,45.58,57.82h-66.89Zm40.45-16.18c-.39-14.41-9.87-21.31-19.93-21.31s-18.75,7.89-19.73,21.31h39.66Z"/>
  </g>
  <g>
    <path class="cls-2" d="m183.96,375.18h-7.54v7.56h8.79v2.3h-11.47v-21.33h11.32v2.3h-8.64v6.87h7.54v2.3Z"/>
    <path class="cls-2" d="m202.56,385.04h-2.7l-8.54-16.44v16.44h-2.7v-21.33h2.7l8.57,16.51v-16.51h2.67v21.33Z"/>
    <path class="cls-2" d="m217.43,375.18h-7.54v7.56h8.79v2.3h-11.47v-21.33h11.32v2.3h-8.64v6.87h7.54v2.3Z"/>
    <path class="cls-2" d="m228.55,376.41h-3.75v8.63h-2.7v-21.33h5.98c2.09,0,3.67.54,4.75,1.63,1.07,1.09,1.61,2.68,1.61,4.78,0,1.32-.29,2.47-.87,3.45-.58.98-1.4,1.72-2.47,2.22l4.13,9.07v.18h-2.89l-3.79-8.63Zm-3.75-2.3h3.25c1.12,0,2.02-.36,2.69-1.09s1-1.69,1-2.91c0-2.74-1.24-4.11-3.72-4.11h-3.22v8.1Z"/>
    <path class="cls-2" d="m251.37,382.39l-.47.59c-1.35,1.57-3.32,2.36-5.92,2.36-2.3,0-4.11-.76-5.43-2.29-1.31-1.53-1.98-3.69-2.01-6.48v-4.19c0-2.99.6-5.23,1.79-6.72s2.99-2.23,5.37-2.23c2.03,0,3.62.56,4.77,1.69,1.15,1.13,1.78,2.74,1.9,4.84h-2.68c-.11-1.33-.48-2.37-1.11-3.11-.63-.75-1.58-1.12-2.86-1.12-1.53,0-2.66.5-3.37,1.5-.71,1-1.08,2.6-1.11,4.8v4.35c0,2.15.41,3.8,1.23,4.94.82,1.15,2,1.72,3.53,1.72,1.45,0,2.54-.35,3.3-1.05l.4-.36v-4.9h-3.9v-2.3h6.58v7.97Z"/>
    <path class="cls-2" d="m258.55,385.04h-2.68v-21.33h2.68v21.33Z"/>
    <path class="cls-2" d="m273.2,379.46h-7.21l-1.66,5.58h-2.75l6.87-21.33h2.3l6.88,21.33h-2.75l-1.68-5.58Zm-6.5-2.3h5.82l-2.92-9.7-2.9,9.7Z"/>
    <path class="cls-2" d="m297.63,375.18h-7.54v7.56h8.79v2.3h-11.47v-21.33h11.32v2.3h-8.64v6.87h7.54v2.3Z"/>
    <path class="cls-2" d="m309.18,385.04v-21.33h5.08c2.49,0,4.42.78,5.8,2.34,1.38,1.56,2.07,3.75,2.07,6.57v3.57c0,2.82-.7,5-2.09,6.54-1.4,1.54-3.42,2.31-6.08,2.31h-4.78Zm2.68-19.03v16.73h2.15c1.88,0,3.26-.54,4.13-1.62s1.31-2.68,1.33-4.8v-3.78c0-2.25-.43-3.9-1.3-4.95-.86-1.05-2.17-1.58-3.92-1.58h-2.4Z"/>
    <path class="cls-2" d="m329.1,385.04h-2.68v-21.33h2.68v21.33Z"/>
    <path class="cls-2" d="m343.12,379.65c0-1.06-.29-1.88-.86-2.45s-1.62-1.12-3.12-1.66-2.65-1.1-3.45-1.69-1.39-1.26-1.79-2.02c-.39-.76-.59-1.62-.59-2.6,0-1.69.56-3.08,1.69-4.17,1.13-1.09,2.6-1.64,4.43-1.64,1.25,0,2.36.28,3.34.84.98.56,1.73,1.33,2.26,2.33.53,1,.79,2.09.79,3.28h-2.7c0-1.32-.32-2.34-.95-3.06s-1.55-1.08-2.74-1.08c-1.08,0-1.92.3-2.52.91s-.89,1.46-.89,2.55c0,.9.32,1.65.97,2.26s1.64,1.15,2.99,1.63c2.1.69,3.6,1.55,4.5,2.57s1.36,2.34,1.36,3.98c0,1.73-.56,3.11-1.68,4.15-1.12,1.04-2.65,1.56-4.58,1.56-1.24,0-2.39-.27-3.44-.81-1.05-.54-1.88-1.3-2.47-2.29-.6-.98-.9-2.11-.9-3.38h2.7c0,1.32.37,2.34,1.11,3.08.74.73,1.74,1.1,3.01,1.1,1.18,0,2.07-.3,2.67-.91s.89-1.43.89-2.48Z"/>
    <path class="cls-2" d="m361.81,366.01h-5.61v19.03h-2.68v-19.03h-5.6v-2.3h13.89v2.3Z"/>
    <path class="cls-2" d="m371.4,376.41h-3.75v8.63h-2.7v-21.33h5.98c2.09,0,3.67.54,4.75,1.63,1.07,1.09,1.61,2.68,1.61,4.78,0,1.32-.29,2.47-.87,3.45-.58.98-1.4,1.72-2.47,2.22l4.13,9.07v.18h-2.89l-3.79-8.63Zm-3.75-2.3h3.25c1.12,0,2.02-.36,2.69-1.09.67-.72,1-1.69,1-2.91,0-2.74-1.24-4.11-3.72-4.11h-3.22v8.1Z"/>
    <path class="cls-2" d="m383.68,385.04h-2.68v-21.33h2.68v21.33Z"/>
    <path class="cls-2" d="m388.38,385.04v-21.33h6.08c1.94,0,3.41.47,4.39,1.42.98.95,1.47,2.37,1.47,4.26,0,1-.25,1.88-.75,2.64s-1.17,1.35-2.02,1.77c.98.29,1.75.89,2.32,1.8.57.91.86,2,.86,3.28,0,1.91-.53,3.42-1.57,4.51-1.05,1.09-2.55,1.64-4.49,1.64h-6.28Zm2.68-12.23h3.44c.93,0,1.68-.31,2.25-.94.57-.63.86-1.46.86-2.5,0-1.17-.26-2.03-.78-2.56s-1.31-.8-2.37-.8h-3.4v6.8Zm0,2.26v7.68h3.66c1.02,0,1.82-.33,2.42-1s.89-1.61.89-2.82c0-2.57-1.08-3.85-3.25-3.85h-3.72Z"/>
    <path class="cls-2" d="m417.46,363.71v15.16c-.02,2.02-.61,3.6-1.76,4.75s-2.76,1.71-4.82,1.71-3.72-.56-4.83-1.68c-1.11-1.12-1.68-2.71-1.7-4.78v-15.16h2.67v15.05c0,1.43.3,2.51.92,3.21.61.71,1.59,1.06,2.95,1.06s2.36-.35,2.97-1.06c.61-.71.92-1.78.92-3.21v-15.05h2.7Z"/>
    <path class="cls-2" d="m424.39,385.04h-2.68v-21.33h2.68v21.33Z"/>
    <path class="cls-2" d="m442.46,378.26c-.12,2.29-.76,4.04-1.93,5.25-1.17,1.22-2.82,1.82-4.94,1.82s-3.84-.81-5.1-2.44c-1.26-1.62-1.89-3.83-1.89-6.61v-3.87c0-2.77.65-4.97,1.94-6.58,1.29-1.61,3.06-2.42,5.29-2.42,2.06,0,3.65.62,4.78,1.85,1.13,1.23,1.74,2.99,1.84,5.29h-2.71c-.12-1.74-.48-2.98-1.1-3.72s-1.55-1.11-2.81-1.11c-1.46,0-2.57.57-3.35,1.71-.78,1.14-1.17,2.81-1.17,5v3.91c0,2.16.36,3.81,1.09,4.97s1.79,1.73,3.19,1.73,2.4-.35,3.02-1.04,1-1.94,1.14-3.74h2.71Zm-6.02,6.91l-.15.76c.59.13,1.04.41,1.35.85s.47,1,.47,1.68c0,.94-.33,1.68-.97,2.24-.65.56-1.58.83-2.79.83l-.09-1.57c1.25,0,1.88-.48,1.88-1.45,0-.44-.13-.76-.39-.96-.26-.2-.77-.34-1.54-.43l.41-1.96h1.83Z"/>
    <path class="cls-2" d="m456.04,379.46h-7.21l-1.66,5.58h-2.75l6.87-21.33h2.3l6.88,21.33h-2.75l-1.68-5.58Zm.88-20.99c0,1.03-.25,1.87-.76,2.54-.51.67-1.16,1-1.96,1-.34,0-.63-.05-.88-.15-.24-.1-.56-.3-.95-.6s-.67-.48-.85-.54c-.18-.06-.38-.09-.6-.09-.33,0-.61.16-.83.47-.22.31-.33.7-.33,1.17l-1.68-.1c0-1.06.26-1.93.78-2.61s1.16-1.01,1.93-1.01c.29,0,.56.06.79.17s.53.29.89.55.65.43.87.54c.22.1.47.15.73.15.33,0,.61-.16.83-.48s.34-.71.34-1.18l1.68.18Zm-7.38,18.69h5.82l-2.92-9.7-2.9,9.7Z"/>
    <path class="cls-2" d="m477.25,376.25c0,2.91-.62,5.15-1.86,6.72s-3,2.36-5.29,2.36-3.93-.76-5.21-2.29c-1.28-1.53-1.94-3.69-1.99-6.48v-4.01c0-2.85.63-5.08,1.89-6.7,1.26-1.62,3.02-2.42,5.27-2.42s4,.77,5.25,2.32c1.25,1.55,1.9,3.76,1.93,6.63v3.88Zm-2.68-3.74c0-2.26-.37-3.93-1.11-5.03-.74-1.1-1.87-1.65-3.39-1.65s-2.59.56-3.35,1.67-1.14,2.75-1.15,4.92v3.82c0,2.18.38,3.84,1.14,4.98.76,1.14,1.89,1.71,3.39,1.71s2.62-.53,3.34-1.58,1.1-2.67,1.13-4.85v-4Z"/>
  </g>
</svg>