<svg xmlns="http://www.w3.org/2000/svg" width="149.606" height="34.996" viewBox="0 0 149.606 34.996">
  <defs>
    <style>
      .cls-1 {
        fill: #fff;
      }

      .cls-2 {
        fill: #4e9b45;
      }
    </style>
  </defs>
  <g id="Group_393" data-name="Group 393" transform="translate(-689.25 -3580.322)">
    <g id="Group_391" data-name="Group 391">
      <path id="Path_1921" data-name="Path 1921" class="cls-1" d="M733.185,3596.869v-6.859H735.6a3.432,3.432,0,0,1,1.317.185,1.383,1.383,0,0,1,.646.658,2.275,2.275,0,0,1,.248,1.077,2.075,2.075,0,0,1-.375,1.274,1.68,1.68,0,0,1-1.116.634,2.8,2.8,0,0,1,.61.576,7.962,7.962,0,0,1,.646,1.114l.69,1.337H736.9l-.826-1.492a9.851,9.851,0,0,0-.6-1.009.867.867,0,0,0-.343-.284,1.565,1.565,0,0,0-.576-.078h-.228v2.863Zm1.141-3.958h.84a3.589,3.589,0,0,0,1.024-.084.647.647,0,0,0,.322-.291,1.035,1.035,0,0,0,.116-.515.941.941,0,0,0-.153-.558.678.678,0,0,0-.431-.27,8.274,8.274,0,0,0-.834-.024h-.884Z"/>
      <path id="Path_1922" data-name="Path 1922" class="cls-1" d="M738.883,3596.869v-6.859h4.191v1.159h-3.051v1.522h2.837v1.156h-2.837v1.867h3.158v1.155Z"/>
      <path id="Path_1923" data-name="Path 1923" class="cls-1" d="M743.858,3594.638l1.11-.131a1.8,1.8,0,0,0,.408,1,1.1,1.1,0,0,0,.828.316,1.125,1.125,0,0,0,.83-.282.921.921,0,0,0,.28-.662.726.726,0,0,0-.119-.416.938.938,0,0,0-.412-.295c-.131-.056-.431-.157-.911-.3a2.874,2.874,0,0,1-1.294-.679,1.969,1.969,0,0,1-.519-1.379,2.034,2.034,0,0,1,.245-.981,1.63,1.63,0,0,1,.71-.7,2.365,2.365,0,0,1,1.112-.239,2.113,2.113,0,0,1,1.6.567,2.208,2.208,0,0,1,.564,1.509l-1.142.06a1.271,1.271,0,0,0-.313-.761,1.016,1.016,0,0,0-.724-.23,1.135,1.135,0,0,0-.778.247.538.538,0,0,0-.181.432.567.567,0,0,0,.17.416,2.706,2.706,0,0,0,1.048.459,5.027,5.027,0,0,1,1.233.493,1.763,1.763,0,0,1,.623.7,2.559,2.559,0,0,1-.043,2.2,1.767,1.767,0,0,1-.763.765,2.725,2.725,0,0,1-1.231.25,2.164,2.164,0,0,1-1.645-.6A2.871,2.871,0,0,1,743.858,3594.638Z"/>
      <path id="Path_1924" data-name="Path 1924" class="cls-1" d="M749.178,3593.483a5.2,5.2,0,0,1,.259-1.759,3.326,3.326,0,0,1,.53-.951,2.253,2.253,0,0,1,.731-.617,2.621,2.621,0,0,1,1.218-.271,2.424,2.424,0,0,1,2.005.948,4.09,4.09,0,0,1,.75,2.615,4.027,4.027,0,0,1-.75,2.6,2.4,2.4,0,0,1-1.988.94,2.431,2.431,0,0,1-2-.934A4,4,0,0,1,749.178,3593.483Zm1.175-.048a2.953,2.953,0,0,0,.444,1.768,1.35,1.35,0,0,0,1.872.372,1.327,1.327,0,0,0,.372-.372,3.009,3.009,0,0,0,.432-1.792,2.911,2.911,0,0,0-.432-1.759,1.4,1.4,0,0,0-2.269,0,3.163,3.163,0,0,0-.414,1.783Z"/>
      <path id="Path_1925" data-name="Path 1925" class="cls-1" d="M755.585,3596.869v-6.8h1.138v5.648h2.837v1.155Z"/>
      <path id="Path_1926" data-name="Path 1926" class="cls-1" d="M760.369,3590.01h1.14v3.716a9.315,9.315,0,0,0,.043,1.145,1.177,1.177,0,0,0,.349.677,1.067,1.067,0,0,0,.753.256.935.935,0,0,0,1.03-.83v0a9.627,9.627,0,0,0,.05-1.164v-3.8h1.14v3.6a11.091,11.091,0,0,1-.093,1.746,2.076,2.076,0,0,1-.34.862,1.749,1.749,0,0,1-.664.561,2.425,2.425,0,0,1-1.078.215,2.636,2.636,0,0,1-1.229-.215,1.863,1.863,0,0,1-.662-.591,2.088,2.088,0,0,1-.319-.761,10.015,10.015,0,0,1-.112-1.739Z"/>
      <path id="Path_1927" data-name="Path 1927" class="cls-1" d="M769.694,3594.347l1.106.431a3.162,3.162,0,0,1-.847,1.669,2.136,2.136,0,0,1-1.509.545,2.256,2.256,0,0,1-1.852-.933,4.075,4.075,0,0,1-.724-2.555,4.276,4.276,0,0,1,.729-2.658,2.3,2.3,0,0,1,1.916-.948,2.127,2.127,0,0,1,1.684.743,2.888,2.888,0,0,1,.579,1.264l-1.118.323a1.548,1.548,0,0,0-.419-.843,1.079,1.079,0,0,0-.773-.308,1.2,1.2,0,0,0-1.02.547,3.115,3.115,0,0,0-.39,1.774,3.332,3.332,0,0,0,.386,1.852,1.169,1.169,0,0,0,1,.554,1.036,1.036,0,0,0,.782-.351A2.193,2.193,0,0,0,769.694,3594.347Zm-2.408,4.4v-.552a5.736,5.736,0,0,0,.729.052.735.735,0,0,0,.509-.151.363.363,0,0,0,.127-.289.372.372,0,0,0-.119-.276.507.507,0,0,0-.37-.116,1.473,1.473,0,0,0-.505.092l.1-.463a1.653,1.653,0,0,1,.647-.127.974.974,0,0,1,.733.258.928.928,0,0,1-.028,1.294,1.5,1.5,0,0,1-1.078.351A2.842,2.842,0,0,1,767.286,3598.749Z"/>
      <path id="Path_1928" data-name="Path 1928" class="cls-1" d="M776.875,3596.869h-1.242l-.493-1.556h-2.249l-.465,1.556h-1.21l2.2-6.859h1.2Zm-3.768-7.239h-.494v-.168a1.253,1.253,0,0,1,.2-.756.6.6,0,0,1,.513-.263.916.916,0,0,1,.25.034,3.026,3.026,0,0,1,.432.2,1.1,1.1,0,0,0,.478.169.27.27,0,0,0,.216-.095.567.567,0,0,0,.1-.313h.5a1.63,1.63,0,0,1-.194.9.574.574,0,0,1-.491.272.982.982,0,0,1-.259-.034c-.15-.057-.3-.121-.442-.192a1.481,1.481,0,0,0-.517-.164.228.228,0,0,0-.192.093A.535.535,0,0,0,773.107,3589.63Zm1.66,4.527-.779-2.543-.763,2.543Z"/>
      <path id="Path_1929" data-name="Path 1929" class="cls-1" d="M777.248,3593.483a5.172,5.172,0,0,1,.259-1.759,3.328,3.328,0,0,1,.526-.951,2.238,2.238,0,0,1,.73-.617,2.624,2.624,0,0,1,1.218-.271,2.419,2.419,0,0,1,2,.94,4.923,4.923,0,0,1,.006,5.214,2.6,2.6,0,0,1-3.992.007A3.973,3.973,0,0,1,777.248,3593.483Zm1.177-.048a2.961,2.961,0,0,0,.442,1.768,1.351,1.351,0,0,0,1.127.6,1.334,1.334,0,0,0,1.119-.6,3.03,3.03,0,0,0,.431-1.791,2.91,2.91,0,0,0-.431-1.759,1.33,1.33,0,0,0-1.108-.58,1.352,1.352,0,0,0-1.138.586,2.954,2.954,0,0,0-.442,1.772Z"/>
      <path id="Path_1930" data-name="Path 1930" class="cls-1" d="M790.618,3596.869h-1.242l-.494-1.556h-2.259l-.466,1.556h-1.211l2.2-6.859h1.207Zm-2.1-2.714-.779-2.544-.763,2.544Z"/>
      <path id="Path_1931" data-name="Path 1931" class="cls-1" d="M791.253,3596.869v-6.8h1.141v5.648h2.837v1.155Z"/>
      <path id="Path_1932" data-name="Path 1932" class="cls-1" d="M796.731,3596.869v-5.7h-1.677v-1.159h4.49v1.159h-1.673v5.7Z"/>
      <path id="Path_1933" data-name="Path 1933" class="cls-1" d="M800.282,3596.869v-6.859h4.19v1.159h-3.05v1.522h2.837v1.156h-2.837v1.867h3.158v1.155Z"/>
      <path id="Path_1934" data-name="Path 1934" class="cls-1" d="M805.55,3596.869v-6.859h2.4a3.435,3.435,0,0,1,1.318.185,1.383,1.383,0,0,1,.646.658,2.3,2.3,0,0,1,.246,1.077,2.089,2.089,0,0,1-.373,1.274,1.69,1.69,0,0,1-1.119.634,2.8,2.8,0,0,1,.613.576,7.962,7.962,0,0,1,.646,1.114l.69,1.337h-1.364l-.826-1.492a9.848,9.848,0,0,0-.6-1.009.857.857,0,0,0-.342-.284,1.552,1.552,0,0,0-.574-.078h-.217v2.863Zm1.143-3.958h.842a3.613,3.613,0,0,0,1.027-.084.644.644,0,0,0,.319-.291,1.034,1.034,0,0,0,.116-.515.941.941,0,0,0-.153-.558.673.673,0,0,0-.431-.27,8.235,8.235,0,0,0-.832-.024h-.888Z"/>
      <path id="Path_1935" data-name="Path 1935" class="cls-1" d="M811.263,3596.869v-6.859h1.11l2.311,4.581v-4.581h1.06v6.859H814.6l-2.281-4.473v4.473Z"/>
      <path id="Path_1936" data-name="Path 1936" class="cls-1" d="M822.041,3596.869H820.8l-.482-1.556h-2.266l-.466,1.556h-1.211l2.2-6.859h1.2Zm-2.1-2.714-.778-2.544-.763,2.544Z"/>
      <path id="Path_1937" data-name="Path 1937" class="cls-1" d="M823.335,3596.869v-5.7h-1.678v-1.159h4.491v1.159h-1.671v5.7Z"/>
      <path id="Path_1938" data-name="Path 1938" class="cls-1" d="M826.853,3596.869v-6.859h1.14v6.859Z"/>
      <path id="Path_1939" data-name="Path 1939" class="cls-1" d="M830.522,3596.869l-2.014-6.859h1.238l1.422,5.074,1.384-5.076h1.212l-2.022,6.861Z"/>
      <path id="Path_1940" data-name="Path 1940" class="cls-1" d="M838.856,3596.869h-1.242l-.483-1.556h-2.27l-.466,1.556h-1.209l2.2-6.859h1.2Zm-2.1-2.714-.778-2.544-.764,2.544Z"/>
      <path id="Path_1941" data-name="Path 1941" class="cls-1" d="M733.192,3601.222h2.134a3.547,3.547,0,0,1,1.1.131,1.911,1.911,0,0,1,.873.632,3.167,3.167,0,0,1,.552,1.112,5.911,5.911,0,0,1,.19,1.621,5.36,5.36,0,0,1-.177,1.459,3.177,3.177,0,0,1-.621,1.212,2,2,0,0,1-.819.548,3.053,3.053,0,0,1-1.035.144h-2.2Zm1.166,1.159v4.545h.873a2.735,2.735,0,0,0,.7-.065,1.018,1.018,0,0,0,.472-.287,1.528,1.528,0,0,0,.306-.662,5.2,5.2,0,0,0,.119-1.256,4.77,4.77,0,0,0-.119-1.221,1.657,1.657,0,0,0-.332-.664,1.057,1.057,0,0,0-.541-.323,4.3,4.3,0,0,0-.957-.067Z"/>
      <path id="Path_1942" data-name="Path 1942" class="cls-1" d="M739.029,3608.081v-6.859h4.29v1.159H740.2v1.522h2.9v1.156h-2.9v1.867h3.233v1.155Z"/>
      <path id="Path_1943" data-name="Path 1943" class="cls-1" d="M746.7,3608.081v-6.8h1.169v5.648h2.9v1.155Z"/>
      <path id="Path_1944" data-name="Path 1944" class="cls-1" d="M751.565,3608.081v-6.859h1.168v6.859Z"/>
      <path id="Path_1945" data-name="Path 1945" class="cls-1" d="M755.148,3608.081v-5.7h-1.725v-1.159h4.6v1.159h-1.712v5.7Z"/>
      <path id="Path_1946" data-name="Path 1946" class="cls-1" d="M758.612,3600.829l.543-1.4H760.4l-1.078,1.4Zm.133,7.252v-6.859h1.169v6.859Z"/>
      <path id="Path_1947" data-name="Path 1947" class="cls-1" d="M763.717,3605.559V3604.4h2.517v2.734a3.122,3.122,0,0,1-1.062.741,3.366,3.366,0,0,1-1.412.322,2.787,2.787,0,0,1-1.583-.453,2.753,2.753,0,0,1-1.013-1.294,4.819,4.819,0,0,1-.338-1.828,4.545,4.545,0,0,1,.377-1.9,2.814,2.814,0,0,1,1.11-1.278,2.608,2.608,0,0,1,1.384-.341,2.456,2.456,0,0,1,1.684.535,2.519,2.519,0,0,1,.778,1.483l-1.16.256a1.48,1.48,0,0,0-.459-.8,1.242,1.242,0,0,0-.843-.294,1.471,1.471,0,0,0-1.218.576,2.755,2.755,0,0,0-.45,1.709,3.044,3.044,0,0,0,.457,1.831,1.431,1.431,0,0,0,1.2.612,1.733,1.733,0,0,0,.735-.173,2.4,2.4,0,0,0,.634-.413v-.863Z"/>
      <path id="Path_1948" data-name="Path 1948" class="cls-1" d="M767.286,3608.081v-6.859h1.169v6.859Z"/>
      <path id="Path_1949" data-name="Path 1949" class="cls-1" d="M769.319,3604.694a5.079,5.079,0,0,1,.265-1.759,3.33,3.33,0,0,1,.539-.942,2.3,2.3,0,0,1,.746-.616,2.737,2.737,0,0,1,1.248-.272,2.507,2.507,0,0,1,2.046.94,4.04,4.04,0,0,1,.767,2.615,3.953,3.953,0,0,1-.763,2.6,2.482,2.482,0,0,1-2.035.94,2.517,2.517,0,0,1-2.052-.934A3.958,3.958,0,0,1,769.319,3604.694Zm1.2-.047a2.9,2.9,0,0,0,.455,1.768,1.4,1.4,0,0,0,2.3,0,2.981,2.981,0,0,0,.448-1.792,2.94,2.94,0,0,0-.431-1.759,1.377,1.377,0,0,0-1.157-.58,1.392,1.392,0,0,0-1.165.587,2.943,2.943,0,0,0-.45,1.776Z"/>
      <path id="Path_1950" data-name="Path 1950" class="cls-1" d="M775.545,3605.85l1.136-.132a1.778,1.778,0,0,0,.416,1,1.133,1.133,0,0,0,.847.317,1.154,1.154,0,0,0,.849-.282.9.9,0,0,0,.287-.662.708.708,0,0,0-.121-.416.947.947,0,0,0-.42-.3c-.136-.056-.448-.158-.933-.3a2.9,2.9,0,0,1-1.32-.679,1.941,1.941,0,0,1-.532-1.38,2.02,2.02,0,0,1,.25-.98,1.676,1.676,0,0,1,.722-.7,2.5,2.5,0,0,1,1.138-.239,1.984,1.984,0,0,1,2.219,2.076l-1.169.06a1.269,1.269,0,0,0-.321-.761,1.052,1.052,0,0,0-.739-.23,1.172,1.172,0,0,0-.8.248.529.529,0,0,0-.185.431.558.558,0,0,0,.174.416,2.75,2.75,0,0,0,1.078.459,5.175,5.175,0,0,1,1.259.494,1.773,1.773,0,0,1,.647.7,2.349,2.349,0,0,1,.23,1.091,2.308,2.308,0,0,1-.276,1.106,1.769,1.769,0,0,1-.782.765,2.819,2.819,0,0,1-1.257.25,2.251,2.251,0,0,1-1.686-.6A2.851,2.851,0,0,1,775.545,3605.85Z"/>
      <path id="Path_1951" data-name="Path 1951" class="cls-1" d="M783.471,3601.222h2.139a3.559,3.559,0,0,1,1.1.131,1.947,1.947,0,0,1,.863.632,3.2,3.2,0,0,1,.552,1.112,5.988,5.988,0,0,1,.189,1.621,5.245,5.245,0,0,1-.179,1.459,3.17,3.17,0,0,1-.618,1.212,2,2,0,0,1-.822.548,2.989,2.989,0,0,1-1.032.144h-2.2Zm1.169,1.159v4.545h.862a2.751,2.751,0,0,0,.707-.065,1.024,1.024,0,0,0,.479-.287,1.551,1.551,0,0,0,.306-.662,5.359,5.359,0,0,0,.116-1.256,4.87,4.87,0,0,0-.116-1.221,1.671,1.671,0,0,0-.332-.664,1.067,1.067,0,0,0-.541-.323,4.333,4.333,0,0,0-.96-.067Z"/>
      <path id="Path_1952" data-name="Path 1952" class="cls-1" d="M789.311,3608.081v-6.859H793.6v1.159H790.48v1.522h2.9v1.156h-2.9v1.867h3.233v1.155Z"/>
      <path id="Path_1953" data-name="Path 1953" class="cls-1" d="M800.646,3605.559l1.134.431a3.161,3.161,0,0,1-.863,1.668,2.214,2.214,0,0,1-1.537.546,2.324,2.324,0,0,1-1.894-.934,3.994,3.994,0,0,1-.742-2.554,4.2,4.2,0,0,1,.746-2.658,2.373,2.373,0,0,1,1.962-.949,2.2,2.2,0,0,1,1.724.744,2.868,2.868,0,0,1,.591,1.263l-1.156.328a1.516,1.516,0,0,0-.431-.843,1.108,1.108,0,0,0-.791-.308,1.235,1.235,0,0,0-1.043.547,3.054,3.054,0,0,0-.4,1.775,3.287,3.287,0,0,0,.394,1.851,1.209,1.209,0,0,0,1.024.554,1.076,1.076,0,0,0,.8-.351A2.183,2.183,0,0,0,800.646,3605.559Z"/>
      <path id="Path_1954" data-name="Path 1954" class="cls-1" d="M802.545,3604.694a5.057,5.057,0,0,1,.263-1.759,3.33,3.33,0,0,1,.539-.942,2.312,2.312,0,0,1,.748-.616,2.726,2.726,0,0,1,1.246-.272,2.5,2.5,0,0,1,2.046.94,4.832,4.832,0,0,1,.006,5.215,2.484,2.484,0,0,1-2.035.94,2.513,2.513,0,0,1-2.052-.934A3.941,3.941,0,0,1,802.545,3604.694Zm1.2-.047a2.911,2.911,0,0,0,.453,1.768,1.39,1.39,0,0,0,1.153.6,1.376,1.376,0,0,0,1.145-.6,2.966,2.966,0,0,0,.448-1.791,2.928,2.928,0,0,0-.431-1.76,1.449,1.449,0,0,0-2.322,0A2.952,2.952,0,0,0,803.748,3604.647Z"/>
      <path id="Path_1955" data-name="Path 1955" class="cls-1" d="M809.079,3608.081v-6.859h1.136l2.371,4.58v-4.58h1.078v6.859h-1.17l-2.331-4.473v4.473Z"/>
      <path id="Path_1956" data-name="Path 1956" class="cls-1" d="M814.606,3605.85l1.136-.132a1.778,1.778,0,0,0,.416,1,1.134,1.134,0,0,0,.845.317,1.171,1.171,0,0,0,.863-.282.911.911,0,0,0,.286-.662.713.713,0,0,0-.12-.416.959.959,0,0,0-.432-.3c-.138-.056-.448-.158-.935-.3a2.96,2.96,0,0,1-1.317-.679,1.941,1.941,0,0,1-.533-1.38,2,2,0,0,1,.25-.98,1.659,1.659,0,0,1,.725-.7,2.486,2.486,0,0,1,1.138-.24,1.984,1.984,0,0,1,2.216,2.076l-1.166.061a1.277,1.277,0,0,0-.322-.761,1.058,1.058,0,0,0-.741-.231,1.178,1.178,0,0,0-.8.248.526.526,0,0,0-.185.431.557.557,0,0,0,.173.416,2.732,2.732,0,0,0,1.077.459,5.205,5.205,0,0,1,1.261.494,1.755,1.755,0,0,1,.647.7,2.306,2.306,0,0,1,.231,1.09,2.283,2.283,0,0,1-.276,1.106,1.758,1.758,0,0,1-.78.765,2.828,2.828,0,0,1-1.259.251,2.257,2.257,0,0,1-1.686-.6A2.793,2.793,0,0,1,814.606,3605.85Z"/>
      <path id="Path_1957" data-name="Path 1957" class="cls-1" d="M820.282,3601.222h1.168v3.716a9.309,9.309,0,0,0,.044,1.145,1.152,1.152,0,0,0,.357.677,1.109,1.109,0,0,0,.772.256,1.053,1.053,0,0,0,.748-.241.977.977,0,0,0,.3-.593,9.061,9.061,0,0,0,.052-1.164v-3.8H824.9v3.6a10.974,10.974,0,0,1-.1,1.746,2.052,2.052,0,0,1-.349.862,1.782,1.782,0,0,1-.681.561,2.519,2.519,0,0,1-1.112.215,2.765,2.765,0,0,1-1.257-.226,1.889,1.889,0,0,1-.677-.591,2.1,2.1,0,0,1-.328-.761,9.921,9.921,0,0,1-.114-1.739Z"/>
      <path id="Path_1958" data-name="Path 1958" class="cls-1" d="M826.111,3608.081v-6.859h1.751l1.049,4.68,1.039-4.68H831.7v6.859h-1.078v-5.389l-1.149,5.389h-1.123l-1.145-5.389v5.389Z"/>
      <path id="Path_1959" data-name="Path 1959" class="cls-1" d="M832.621,3604.694a5.154,5.154,0,0,1,.263-1.759,3.393,3.393,0,0,1,.539-.942,2.311,2.311,0,0,1,.748-.616,2.726,2.726,0,0,1,1.246-.272,2.5,2.5,0,0,1,2.046.94,4.832,4.832,0,0,1,.006,5.215,2.482,2.482,0,0,1-2.034.94,2.515,2.515,0,0,1-2.053-.934A3.947,3.947,0,0,1,832.621,3604.694Zm1.2-.047a2.911,2.911,0,0,0,.453,1.768,1.39,1.39,0,0,0,1.153.6,1.374,1.374,0,0,0,1.145-.6,2.958,2.958,0,0,0,.448-1.791,2.928,2.928,0,0,0-.431-1.76,1.446,1.446,0,0,0-2.024-.3,1.469,1.469,0,0,0-.3.3,2.952,2.952,0,0,0-.446,1.779Z"/>
    </g>
    <g id="Group_392" data-name="Group 392">
      <path id="Path_1960" data-name="Path 1960" class="cls-1" d="M706.748,3615.318a17.5,17.5,0,1,1,17.5-17.5A17.5,17.5,0,0,1,706.748,3615.318Zm0-33.077a15.581,15.581,0,1,0,15.579,15.583v0A15.6,15.6,0,0,0,706.748,3582.241Z"/>
      <path id="Path_1961" data-name="Path 1961" class="cls-1" d="M704.269,3602.521c0,1.813-2.622.121-4.743-1.34s-4.971-2.46-2.925-3.96c.709-.52,1.367-.893,4.742,1.343C704.913,3600.933,704.273,3600.857,704.269,3602.521Z"/>
      <path id="Path_1962" data-name="Path 1962" class="cls-1" d="M703.551,3587.712c.075-1.813,2.623-.024,4.682,1.509s4.876,2.643,2.774,4.065c-.726.492-1.4.841-4.682-1.509C702.846,3589.275,703.478,3589.374,703.551,3587.712Z"/>
      <path id="Path_1963" data-name="Path 1963" class="cls-1" d="M699.427,3596.753s2.324,1.276,4.2,2.587a9.013,9.013,0,0,0,2.621-1.055l10.1,6.1s2.79.6,1.658-2.185l-10.252-6.036.176-2.613a22.473,22.473,0,0,1-4.246-2.928A8.841,8.841,0,0,0,699.427,3596.753Z"/>
      <rect id="Rectangle_365" data-name="Rectangle 365" class="cls-1" width="12.891" height="1.132" transform="translate(695.62 3606.723)"/>
      <rect id="Rectangle_366" data-name="Rectangle 366" class="cls-1" width="11.007" height="2.283" transform="translate(696.599 3604.44)"/>
    </g>
    <path id="Path_1964" data-name="Path 1964" class="cls-2" d="M711.762,3590.958l5.247,6.036a1.818,1.818,0,0,0,2.824-.362l8.095-11.772,1.133-1.647a1.818,1.818,0,0,0-.646-2.462,1.836,1.836,0,0,0-2.462.647l-8.1,11.77-1.134,1.649,2.824-.364-5.244-6.036a1.8,1.8,0,0,0-2.544,2.543Z"/>
  </g>
</svg>
