<svg xmlns="http://www.w3.org/2000/svg" width="24.709" height="24.71" viewBox="0 0 24.709 24.71">
  <defs>
    <style>
      .cls-1 {
        fill: #fff;
      }
    </style>
  </defs>
  <path id="Path_989" data-name="Path 989" class="cls-1" d="M2215.532,1120.852a12.355,12.355,0,1,0,12.354,12.355A12.355,12.355,0,0,0,2215.532,1120.852Zm4,12.852-6.258,6.258a.754.754,0,0,1-1.067,0l-.646-.646a.756.756,0,0,1,0-1.067l4.811-4.821a.313.313,0,0,0,0-.442l-4.811-4.821a.755.755,0,0,1,0-1.066l.646-.647a.756.756,0,0,1,1.067,0l6.258,6.258A.7.7,0,0,1,2219.535,1133.7Z" transform="translate(-2203.177 -1120.852)"/>
</svg>
