<?xml version="1.0" encoding="utf-8"?>
<!-- Generator: Adobe Illustrator 25.0.1, SVG Export Plug-In . SVG Version: 6.00 Build 0)  -->
<svg version="1.1" id="Group_452" xmlns="http://www.w3.org/2000/svg" xmlns:xlink="http://www.w3.org/1999/xlink" x="0px" y="0px"
	 viewBox="0 0 111.5 38" style="enable-background:new 0 0 111.5 38;" xml:space="preserve">
<style type="text/css">
	.st0{fill:#1A1A1A;}
	.st1{fill:#CE000F;}
	.st2{enable-background:new    ;}
	.st3{fill:#FFFFFF;}
	.st4{fill:#333333;}
</style>
<path id="Rectangle_312" class="st0" d="M2.6,1.5h107.9c0.6,0,1,0.5,1,1V37c0,0.6-0.5,1-1,1H2.6c-0.6,0-1-0.5-1-1V2.6
	C1.5,2,2,1.5,2.6,1.5z"/>
<path id="Rectangle_313" class="st1" d="M1,0h107.9c0.6,0,1,0.5,1,1v34.4c0,0.6-0.5,1-1,1H1c-0.6,0-1-0.5-1-1V1C0,0.5,0.5,0,1,0z"/>
<g class="st2">
	<path class="st3" d="M53,20.4l1.8-6.1h1.9l-2.8,8.1h-1.7l-2.8-8.1h1.8L53,20.4z"/>
	<path class="st3" d="M64,18.5c0,0.8-0.1,1.5-0.4,2.1c-0.3,0.6-0.7,1.1-1.2,1.4c-0.5,0.3-1.1,0.5-1.8,0.5c-0.7,0-1.3-0.2-1.8-0.5
		c-0.5-0.3-0.9-0.8-1.2-1.4c-0.3-0.6-0.4-1.3-0.4-2.1v-0.4c0-0.8,0.1-1.5,0.4-2.1c0.3-0.6,0.7-1.1,1.2-1.4c0.5-0.3,1.1-0.5,1.8-0.5
		c0.7,0,1.3,0.2,1.8,0.5c0.5,0.3,0.9,0.8,1.2,1.4c0.3,0.6,0.4,1.3,0.4,2.1V18.5z M62.3,18.2c0-0.8-0.2-1.5-0.5-1.9
		c-0.3-0.4-0.7-0.7-1.3-0.7c-0.6,0-1,0.2-1.3,0.7c-0.3,0.4-0.5,1.1-0.5,1.9v0.4c0,0.8,0.2,1.5,0.5,1.9s0.7,0.7,1.3,0.7
		c0.6,0,1-0.2,1.3-0.7c0.3-0.4,0.5-1.1,0.5-1.9V18.2z"/>
	<path class="st3" d="M66.9,21.1h3.5v1.3h-5.2v-8.1h1.7V21.1z"/>
	<path class="st3" d="M76.3,15.7h-2.5v6.7h-1.7v-6.7h-2.4v-1.3h6.6V15.7z"/>
	<path class="st3" d="M81.2,20.7h-2.9l-0.6,1.7h-1.8l3-8.1h1.5l3,8.1h-1.8L81.2,20.7z M78.7,19.4h2l-1-3L78.7,19.4z"/>
	<path class="st3" d="M87.3,19.4h-1.3v3h-1.7v-8.1h3c1,0,1.7,0.2,2.2,0.6c0.5,0.4,0.8,1,0.8,1.8c0,0.6-0.1,1-0.4,1.4
		c-0.2,0.4-0.6,0.7-1.1,0.9l1.8,3.3v0.1h-1.8L87.3,19.4z M85.9,18.1h1.3c0.4,0,0.7-0.1,1-0.3c0.2-0.2,0.3-0.5,0.3-0.9
		c0-0.4-0.1-0.7-0.3-0.9c-0.2-0.2-0.5-0.3-1-0.3h-1.3V18.1z"/>
</g>
<circle id="Ellipse_92" class="st3" cx="24.7" cy="17.9" r="12.4"/>
<path id="Path_1676" class="st4" d="M28.7,12.9l-4.8,4.8c-0.1,0.1-0.1,0.3,0,0.4l4.8,4.8c0.3,0.3,0.3,0.8,0,1.1L28,24.7
	c-0.3,0.3-0.8,0.3-1.1,0l-6.3-6.3c-0.3-0.3-0.3-0.7,0-1c0,0,0,0,0,0l6.3-6.3c0.3-0.3,0.8-0.3,1.1,0l0.6,0.6
	C29,12.1,29,12.6,28.7,12.9z"/>
</svg>
